<?xml version="1.0" encoding="utf-8"?>
<!-- Generator: Adobe Illustrator 23.1.0, SVG Export Plug-In . SVG Version: 6.00 Build 0)  -->
<svg version="1.1" id="PATTERNS" xmlns="http://www.w3.org/2000/svg" xmlns:xlink="http://www.w3.org/1999/xlink" x="0px" y="0px"
	 viewBox="0 0 500 500" style="enable-background:new 0 0 500 500;" xml:space="preserve">
<style type="text/css">
	.st0{fill:none;}
	.st1{fill:#F2D9C9;}
	.st2{fill:#F1EBE7;}
	.st3{fill:url(#New_Pattern_3);}
</style>
<pattern  x="-47.6" y="-170.9" width="185.1" height="119.3" patternUnits="userSpaceOnUse" id="New_Pattern_3" viewBox="20.9 -165 185.1 119.3" style="overflow:visible;">
	<g>
		<rect x="20.9" y="-165" class="st0" width="185.1" height="119.3"/>
		<g>
			<path class="st1" d="M166.3-39.2c2.8-1.3,5.5-1.7,8.3-1.8c1.6,8.4,1.1,16.9,2.2,25.4c-0.2,0.1-0.3,0.3-0.4,0.5
				c-1.8,3.1-3.5,6.7-0.9,9.9c1.7,2.1,4.6,2.8,7.1,1.8c2.9-1.2,4.2-4.4,3.2-7.3c-0.9-2.5-3.3-4.7-6-5.4c-1.1-8.2-0.6-16.6-2.1-24.8
				c0.3,0,0.5,0,0.8,0.1c4.5,0.4,11.6,2.7,15.5-0.7c3.2-2.7,3.4-7.5,2.8-11.4c-1.3-9.2-15.6-8.3-22.1-7.4c-7.4,1-18,4.1-19.2,12.8
				c0,0,0,0,0,0c0,0.1-0.1,0.2-0.1,0.4c-0.1,3.2,1.1,7.8,4.8,8.6C162.4-38.1,164.2-38.3,166.3-39.2z M181.4-6.3
				c-1.3,0.5-2.7,0.1-3.7-0.9c-1.7-1.8-0.1-4.4,1-6.2C181.6-12.8,185.3-7.8,181.4-6.3z M158.5-47.1c1.9-11.4,22.3-12.2,30.8-9.8
				c5.1,1.5,5.4,6.7,4.1,11c-1.3,4.4-8.4,2.7-11.6,2.3c-4-0.5-7.8-0.9-11.8-0.3c-1.4,0.2-2.8,0.8-4.1,1.4
				C161.4-40.3,158.4-42.4,158.5-47.1z"/>
			<path class="st1" d="M166.2-46.6C166.3-46.6,166.3-46.6,166.2-46.6c0.1,0,0.2-0.1,0.2-0.1c-0.7,0.3,0,0,0.1-0.1c0,0-0.1,0-0.1,0
				c0.5-0.3,0.9-0.8,1-1.5c0.1-0.8-0.6-1.4-1.2-1.6c-0.2-0.1-0.4-0.1-0.6-0.1c-1.1,0-2,1.1-1.7,2.2
				C164.2-46.6,165.3-46.3,166.2-46.6z M165.9-46.5c0,0-0.1,0-0.1,0c-0.1,0-0.1,0-0.2,0C165.7-46.5,165.8-46.5,165.9-46.5z"/>
			<circle class="st1" cx="175.5" cy="-51.1" r="2.3"/>
			<circle class="st1" cx="187" cy="-50.6" r="2.3"/>
			<path class="st1" d="M201.5-40.9c4.4-7,3.2-20.5-4.8-24.6c-1.7-0.9-3.2,1.7-1.5,2.6c6.6,3.4,7.2,14.9,3.7,20.5
				C197.9-40.7,200.5-39.2,201.5-40.9z"/>
			<path class="st1" d="M199.4-80.5c-2.5,0-2.5,3.9,0,3.9C201.9-76.6,201.9-80.5,199.4-80.5z"/>
			<path class="st1" d="M224.7-83.5c0.6-0.5,0.5-1.6,0-2.1c-0.6-0.6-1.5-0.5-2.1,0c-0.2,0.2-0.4,0.3-0.6,0.5
				c-0.1,0.1-0.2,0.2-0.3,0.3c-0.1,0.1-0.1,0.1-0.2,0.2c0.1-0.1,0.1-0.1,0,0c-0.1,0.1-0.2,0.2-0.4,0.3c-0.3-0.5-0.7-0.9-1.1-1.4
				c-0.3-0.4-0.7-0.7-1.1-1c0.4-0.8,0.9-1.6,1.2-2.4c0.3-0.7,0.2-1.6-0.5-2.1c-0.6-0.4-1.7-0.2-2.1,0.5c-0.4,0.9-0.8,1.7-1.3,2.5
				c-1.1-0.4-2.2-0.7-3.4-0.8c-0.1-1.6,0.1-3.3,0.1-4.9c0-1.9-3-1.9-3,0c0,1.6-0.2,3.2-0.1,4.7c-3,0-6,0.4-8.4,0.8
				c-4.3,0.6-12.9,1.1-15.6,5.5c-0.2,0.2-0.4,0.4-0.4,0.8c-0.1,0.3-0.1,0.5-0.1,0.7c-0.6,4.9,0.4,10.1,5.6,11.9
				c3.6,1.3,7.2,0.2,10.7,2.3c4,2.3,5.2,7.4,5.7,11.7c0.7,6-0.5,11.6,6,14.3c4.1,1.7,9.5,0,10.5-4.6c1.6-7,0.5-15.4,0.2-22.5
				c-0.2-4.3,0-9.2-1.6-13.3c0.2-0.1,0.3-0.3,0.5-0.4C223.5-82.5,224.1-83,224.7-83.5z M221.1-48.5c-0.2,3.9-2.4,5.3-6.1,4.6
				c-3.6-0.7-4.4-3.6-4.6-6.8c-0.4-5.1-0.3-9.7-2.8-14.4c-1.6-3-4.4-5-7.4-6.2c-2-0.8-4.3-0.7-6.4-0.9c-5.2-0.3-6.3-4.9-5.6-9.3
				c1.4-3.5,12.2-4,15.1-4.4c5.3-0.6,12.6-1.5,15.8,3.8c2.6,4.4,1.8,11.7,2,16.6C221.3-59.7,221.4-54.1,221.1-48.5z"/>
			<path class="st1" d="M185-63.8c1.2,0,2.2-1,2.2-2.2c0-1.2-1-2.2-2.2-2.2c-1.2,0-2.2,1-2.2,2.2C182.8-64.8,183.8-63.8,185-63.8z"
				/>
			<path class="st1" d="M190.8-66.3C190.8-66.3,190.8-66.3,190.8-66.3c-0.4,0-0.7,0.2-0.9,0.5c-0.1,0.2-0.2,0.4-0.2,0.6
				c0,0.3,0.1,0.5,0.2,0.6c0.2,0.3,0.5,0.5,0.9,0.5c0,0,0,0,0,0c0.2,0,0.4,0,0.5-0.1c0.9-0.4,0.9-1.6,0-2
				C191.2-66.2,191-66.3,190.8-66.3z"/>
			<path class="st1" d="M175-82.6c6-0.1,15.8-4.5,17.3-10.9c0.1-0.2,0.1-0.4,0.1-0.7c0-0.1,0-0.3,0-0.4c0-3.6,0.2-9-2.4-11.7
				c-2.8-2.9-6.6-4.1-10.4-5.1c-2.5-0.7-7.3-2.5-9.8-0.9c-3.3,2.2-4.2,6.2-4.4,9.9C164.8-94.5,164.4-82.3,175-82.6z M168.3-101.2
				c0.1-2.5,0.5-9.1,4.6-8.6c2.3,0.3,4.7,1,7,1.6c2.6,0.7,5.2,1.6,7.3,3.4c2.7,2.2,2.2,7.5,2.2,10.6c-0.6,4.9-9.3,7.5-13.2,8.4
				C167.2-83.7,168.2-95.4,168.3-101.2z"/>
			<path class="st1" d="M172.3-104.3c3.9,1.5,8,2.6,12,4c1.8,0.6,2.6-2.3,0.8-2.9c-4-1.3-8.1-2.5-12-4
				C171.3-107.8,170.5-104.9,172.3-104.3z"/>
			<path class="st1" d="M171.9-95.8c4.4,0.4,8.9,0.7,13.3,0.7c1.9,0,1.9-3,0-3c-4.4,0-8.9-0.2-13.3-0.7C170-99,170-96,171.9-95.8z"
				/>
			<path class="st1" d="M173.4-92.5c-1.2,0-2.2,1-2.2,2.2c0,1.2,1,2.2,2.2,2.2c1.2,0,2.2-1,2.2-2.2
				C175.6-91.5,174.6-92.5,173.4-92.5z"/>
			<path class="st1" d="M178.7-93.1C178.7-93.1,178.7-93.1,178.7-93.1c-1.2,0.2-1.7,1.8-1.1,2.7c0.6,1.1,2,1.1,2.8,0.4c0,0,0,0,0,0
				c0.6-0.5,0.7-1.5,0.3-2.2C180.3-93,179.5-93.2,178.7-93.1z"/>
			<path class="st1" d="M183.8-93.2c-1.2,0-1.2,1.8,0,1.8C185-91.4,185-93.2,183.8-93.2z"/>
			<path class="st1" d="M189.3-112.2c0.9,0.6,1.9,1.2,2.9,1.8c2.6,1.6,2.9,3.6,3,6.5c0.1,2.9-0.7,6.5,0.1,9.4
				c1.2,4.2,7.2,3.7,10.6,3.3c1.9-0.2,1.9-3.2,0-3c-2.2,0.3-7.6,1.3-7.8-2.1c-0.2-3.5,0.1-6.9-0.1-10.4c-0.3-4.3-4.1-5.9-7.2-7.9
				C189.2-115.8,187.7-113.2,189.3-112.2z"/>
			<path class="st1" d="M202.6-97.9c4.3,0,8.6,0,12.9,0.7c5.7,0.9,8.3,4.7,11.4,9.2c1.1,1.6,3.7,0.1,2.6-1.5
				c-2.9-4.2-5.5-8.1-10.4-10c-4.9-1.9-11.3-1.4-16.5-1.4C200.6-100.9,200.6-97.9,202.6-97.9z"/>
			<path class="st1" d="M201.4-107.7c0,0.1,0,0.1,0,0.2c0.8,4.8,4.7,4.6,8.7,4.7c5.4,0.2,10.9,0.5,16.3,0.6
				c8.2,0.2,18.5,1.4,18.9-9.6c0.2-4.7-4.6-4.5-8.1-4.7c-5.7-0.4-11.5-0.2-17.2-0.1c-4.5,0.1-9,0.2-13.5,0.5
				c-5.4,0.4-5.5,3.8-5.1,8.2C201.3-107.9,201.4-107.8,201.4-107.7z M205.5-113c1.1-0.4,2.7-0.3,3.9-0.3c3.5-0.2,7.1-0.3,10.6-0.4
				c2.2-0.1,22.9-1.4,22.2,2.5c-0.8,4.4-2.3,5.4-6.4,5.8c-3.5,0.3-7.1,0.2-10.6,0.1c-3-0.1-20.2,1.1-21-3
				C204-110,203.3-112.3,205.5-113z"/>
			<path class="st1" d="M157.1-71.2c1.5-1,3.1-2,4.7-2.8c1-0.5,2.5-1.4,3.5-0.5c1.2,1,1.8,3.1,2.4,4.6c0.3,0.9,1.5,3,0.4,3.8
				c-1.1,0.8-2.4,1.4-3.6,2c-2.2,1.2-4.4,2.5-6.5,3.8c-1.6,1-0.1,3.6,1.5,2.6c3.5-2.1,7.4-3.9,10.7-6.3c2.7-1.9,0.9-5.3,0-7.7
				c-1-2.7-2.4-5.7-5.6-6.1c-3-0.4-6.7,2.7-9,4.2C153.9-72.7,155.4-70.1,157.1-71.2z"/>
			<path class="st1" d="M161.3-84.6c-3.2,1.3-6.3,2.6-8.9,4.9c-1.5,1.3,0.7,3.4,2.1,2.1c2.2-1.9,4.9-3,7.6-4.1
				C163.9-82.4,163.1-85.3,161.3-84.6z"/>
			<path class="st1" d="M179.1-68.2c-1.6,0.1-2,0.4-2.2-1.3c-0.1-1.1-0.2-2.1-0.6-3.2c-0.9-2.6-2.2-5-4.1-7
				c-1.3-1.4-3.4,0.7-2.1,2.1c2.5,2.7,3.4,5.6,3.9,9.1c0.5,3.2,2.2,3.5,5.1,3.3C181-65.3,181-68.3,179.1-68.2z"/>
			<path class="st1" d="M182.9-71.4c-0.6-3-1.3-5.9-2.5-8.6c-0.8-1.8-3.4-0.2-2.6,1.5c1.1,2.5,1.7,5.2,2.2,7.9
				C180.4-68.7,183.3-69.5,182.9-71.4z"/>
		</g>
		<g>
			<path class="st1" d="M82.5-22.9c6-0.1,15.8-4.5,17.3-10.9c0.1-0.2,0.1-0.4,0.1-0.7c0-0.1,0-0.3,0-0.4c0-3.6,0.2-9-2.4-11.7
				c-2.8-2.9-6.6-4.1-10.4-5.1c-2.5-0.7-7.3-2.5-9.8-0.9c-3.3,2.2-4.2,6.2-4.4,9.9C72.2-34.8,71.9-22.7,82.5-22.9z M75.8-41.5
				c0.1-2.5,0.5-9.1,4.6-8.6c2.3,0.3,4.7,1,7,1.6c2.6,0.7,5.2,1.6,7.3,3.4c2.7,2.2,2.2,7.5,2.2,10.6c-0.6,4.9-9.3,7.5-13.2,8.4
				C74.6-24,75.6-35.8,75.8-41.5z"/>
			<path class="st1" d="M79.7-44.6c3.9,1.5,8,2.6,12,4c1.8,0.6,2.6-2.3,0.8-2.9c-4-1.3-8.1-2.5-12-4C78.7-48.2,77.9-45.3,79.7-44.6z
				"/>
			<path class="st1" d="M96.8-52.5c0.9,0.6,1.9,1.2,2.9,1.8c2.6,1.6,2.9,3.6,3,6.5c0.1,2.9-0.7,6.5,0.1,9.4
				c1.2,4.2,7.2,3.7,10.6,3.3c1.9-0.2,1.9-3.2,0-3c-2.2,0.3-7.6,1.3-7.8-2.1c-0.2-3.5,0.1-6.9-0.1-10.4c-0.3-4.3-4.1-5.9-7.2-7.9
				C96.7-56.2,95.2-53.6,96.8-52.5z"/>
			<path class="st1" d="M108.8-48.1c0,0.1,0,0.1,0,0.2c0.8,4.8,4.7,4.6,8.7,4.7c5.4,0.2,10.9,0.5,16.3,0.6
				c8.2,0.2,18.5,1.4,18.9-9.6c0.2-4.7-4.6-4.5-8.1-4.7c-5.7-0.4-11.5-0.2-17.2-0.1c-4.5,0.1-9,0.2-13.5,0.5
				c-5.4,0.4-5.5,3.8-5.1,8.2C108.8-48.2,108.8-48.2,108.8-48.1z M112.9-53.4c1.1-0.4,2.7-0.3,3.9-0.3c3.5-0.2,7.1-0.3,10.6-0.4
				c2.2-0.1,22.9-1.4,22.2,2.5c-0.8,4.4-2.3,5.4-6.4,5.8c-3.5,0.3-7.1,0.2-10.6,0.1c-3-0.1-20.2,1.1-21-3
				C111.5-50.3,110.8-52.6,112.9-53.4z"/>
			<path class="st1" d="M117.4-47.8c1.2,0,2.3-1,2.3-2.3c0-1.2-1-2.3-2.3-2.3s-2.3,1-2.3,2.3C115.2-48.8,116.2-47.8,117.4-47.8z"/>
			<path class="st1" d="M126.4-48.5c1.1-0.3,1.7-1.6,1.1-2.6c-0.5-0.8-1.6-1.1-2.5-0.6c-0.9,0.5-1.1,1.6-0.6,2.5
				C124.7-48.6,125.6-48.3,126.4-48.5z"/>
			<path class="st1" d="M133.5-47.9c1.2,0,2.2-1,2.2-2.2c0-1.2-1-2.2-2.2-2.2c-1.2,0-2.2,1-2.2,2.2
				C131.3-48.9,132.3-47.9,133.5-47.9z"/>
			<path class="st1" d="M142-47.8c1.2,0,2.3-1,2.3-2.3c0-1.2-1-2.3-2.3-2.3c-1.2,0-2.3,1-2.3,2.3C139.8-48.9,140.8-47.8,142-47.8z"
				/>
		</g>
		<g>
			<path class="st1" d="M23.5-81.5c-1.2,0-2.3,1-2.3,2.3c0,1.2,1,2.3,2.3,2.3c1.2,0,2.3-1,2.3-2.3C25.8-80.4,24.8-81.5,23.5-81.5z"
				/>
			<path class="st1" d="M39.6-83.5c0.6-0.5,0.5-1.6,0-2.1c-0.6-0.6-1.5-0.5-2.1,0c-0.2,0.2-0.4,0.3-0.6,0.5
				c-0.1,0.1-0.2,0.2-0.3,0.3c-0.1,0.1-0.1,0.1-0.2,0.2c0.1-0.1,0.1-0.1,0,0c-0.1,0.1-0.2,0.2-0.4,0.3c-0.3-0.5-0.7-0.9-1.1-1.4
				c-0.3-0.4-0.7-0.7-1.1-1c0.4-0.8,0.9-1.6,1.2-2.4c0.3-0.7,0.2-1.6-0.5-2.1c-0.6-0.4-1.7-0.2-2.1,0.5c-0.4,0.9-0.8,1.7-1.3,2.5
				c-1.1-0.4-2.2-0.7-3.4-0.8c-0.1-1.6,0.1-3.3,0.1-4.9c0-1.9-3-1.9-3,0c0,1.6-0.2,3.2-0.1,4.7c-3,0-6,0.4-8.4,0.8
				c-4.3,0.6-12.9,1.1-15.6,5.5c-0.2,0.2-0.4,0.4-0.4,0.8c-0.1,0.3-0.1,0.5-0.1,0.7c-0.6,4.9,0.4,10.1,5.6,11.9
				c3.6,1.3,7.2,0.2,10.7,2.3c4,2.3,5.2,7.4,5.7,11.7c0.7,6-0.5,11.6,6,14.3c4.1,1.7,9.5,0,10.5-4.6c1.6-7,0.5-15.4,0.2-22.5
				c-0.2-4.3,0-9.2-1.6-13.3c0.2-0.1,0.3-0.3,0.5-0.4C38.4-82.5,39-83,39.6-83.5z M36-48.5c-0.2,3.9-2.4,5.3-6.1,4.6
				c-3.6-0.7-4.4-3.6-4.6-6.8c-0.4-5.1-0.3-9.7-2.8-14.4c-1.6-3-4.4-5-7.4-6.2c-2-0.8-4.3-0.7-6.4-0.9c-5.2-0.3-6.3-4.9-5.6-9.3
				c1.4-3.5,12.2-4,15.1-4.4c5.3-0.6,12.6-1.5,15.8,3.8c2.6,4.4,1.8,11.7,2,16.6C36.3-59.7,36.3-54.1,36-48.5z"/>
			<path class="st1" d="M32.7-54.7c0-6.2-1-12.5-3.7-18.1c-0.8-1.7-3.4-0.2-2.6,1.5c2.5,5.1,3.3,10.9,3.3,16.6
				C29.7-52.8,32.7-52.8,32.7-54.7z"/>
			<path class="st1" d="M30.9-50.8c-1.2,0-2.2,1-2.2,2.2c0,1.2,1,2.2,2.2,2.2c1.2,0,2.2-1,2.2-2.2C33.1-49.9,32.1-50.8,30.9-50.8z"
				/>
			<path class="st1" d="M51.9-55.7c0,0-0.1,0-0.1,0c-1.1-0.1-2,0.9-2,2c0,1,0.9,2,2,2c0,0,0.1,0,0.1,0c1.1-0.1,1.9-0.8,1.9-1.9
				C53.8-54.9,52.9-55.7,51.9-55.7z"/>
			<path class="st1" d="M59.2-51.7c1,0,1.9-0.8,1.9-1.9c0-1-0.8-1.9-1.9-1.9c-1,0-1.9,0.8-1.9,1.9C57.4-52.5,58.2-51.7,59.2-51.7z"
				/>
			<path class="st1" d="M69.7-9.8c0.5-0.8-0.5,0.1-0.7,0.2c-0.7,0.4-1.4,0.7-2.1,1.1c-1.7,1-3.3,2.2-4.9,3.4c-1.7-4-3-8.1-4.9-12
				c0-0.2,0-0.3,0-0.5c0-6.1,0-12.2,0-18.3c2-0.3,5.2-0.8,5.3,0.7c0.2,2.1-0.6,4.2-0.2,6.3c0.1,0.6,0.8,1.2,1.4,1.1
				c1.5-0.2,2.9-0.3,4.4-0.4c1.9-0.1,1.9-3.1,0-3c-1,0-2,0.1-3,0.2c0-2.3,1-4.6-0.3-6.7c-1.4-2.3-5-1.6-7.6-1.2c0-1.2,0-2.4,0-3.7
				c2.4-0.1,5-0.4,7.1-1.2c2.8-1.1,3.1-3.9,3.2-6.5c0.1-3.1-0.2-6.3-1-9.4c-0.8-3.1-2.6-4.2-5.7-4.8c-6.4-1.2-14.9-2-15.8,6.3
				c-0.3,4-1.6,9,0.9,12.5c1.7,2.5,5.2,2.9,7.9,3c0.2,0,0.3,0,0.5,0c0,1.4,0,2.8,0,4.2c-1.1,0.3-2.2,0.6-3.4,0.9
				c-1.9,0.5-4,1.6-4.8-0.6c-1.3-3.5-3.3-3.3-6.6-2.9c-1.9,0.2-1.9,3.2,0,3c0.9-0.1,1.8-0.3,2.7-0.4c0.8-0.1,1.2,1.8,1.4,2.3
				c0.5,1.1,1.2,2,2.4,2.3c2.5,0.6,5.6-0.7,8.2-1.5c0,5.6,0,11.2,0,16.7c-4.8,2.3-9.8,4.3-14.6,6.6c-0.9,0.4-1,1.7-0.3,2.4
				c3.2,3.1,6.3,6.3,9.8,9.1c1.5,1.2,3.6-0.9,2.1-2.1c-2.9-2.4-5.5-5-8.2-7.6c3.9-1.8,7.9-3.5,11.8-5.3c2.1,4.4,3.5,9,5.5,13.4
				c0.3,0.7,1.4,1,2.1,0.5c2.2-1.5,4.3-3.3,6.7-4.6c1.1-0.6,2.8-1.1,3.5-2.2C73.4-9.9,70.8-11.4,69.7-9.8z M48-47.7
				c-1.7-2.4-0.2-7.7,0-10.4c0.6-5.8,9-3.9,13.1-3.2c3.9,0.7,3.4,8,3.4,11.1c0,5.1-6,4.6-9.8,4.7C52.3-45.5,49.4-45.7,48-47.7z"/>
			<path class="st1" d="M50.3-91.1C50.3-91.1,50.3-91.1,50.3-91.1c-3.4,0.6-4.4,5-5.1,7.7c-0.7,2.7-1,5.4-1.4,8.1
				c-0.2,1.5-0.9,3.6-0.7,5.2c0.5,3,6.1,2.5,8.2,2.5c5-0.1,5-2,5.3-6.6c0.3-4.3,1.4-5.2,5.5-5.5c2.2-0.2,4.3,0,6.5,0.1
				c3.5,0,3.8-4.9,3.6-7.3c-0.2-4.1-2.5-4.5-6-4.5c-5.2,0.1-10.4,0.3-15.6,0.3C50.6-91.2,50.4-91.2,50.3-91.1z M65.2-88.4
				c2.4-0.1,4-0.6,4.2,2.3c0.2,4.3-1.9,3.4-5.2,3.4c-2.8,0-6.2,0.1-8.5,1.8c-2,1.5-1.8,4.5-2,6.7c-0.2,2.2,0.8,3.3-1.4,3.5
				c-1.9,0.2-3.9,0.1-5.8-0.3c-0.4-0.1,0-1.5,0.2-2.6c0.2-1.6,0.5-3.3,0.7-4.9c0.4-2.2,1-9,3.7-9.7c2.8,0,5.5-0.1,8.3-0.1
				C61.2-88.3,63.2-88.4,65.2-88.4z"/>
			<path class="st1" d="M65-76.1c-2.4-0.1-4.5,1.6-4.9,3.9c-0.1,0.2-0.1,0.3-0.1,0.5c0,0.2,0,0.3,0,0.5c0.2,2.4,2,4,4.3,4.3
				c2.6,0.3,4.7-1.8,4.9-4.2C69.4-73.8,67.7-75.9,65-76.1z M62.9-71.7c0.1-0.9,1-1.4,1.8-1.4c1.1-0.1,1.5,0.7,1.5,1.7
				C66.2-69.1,62.9-69.5,62.9-71.7z"/>
			<path class="st1" d="M4.2-112.2c0.9,0.6,1.9,1.2,2.9,1.8c2.6,1.6,2.9,3.6,3,6.5c0.1,2.9-0.7,6.5,0.1,9.4
				c1.2,4.2,7.2,3.7,10.6,3.3c1.9-0.2,1.9-3.2,0-3c-2.2,0.3-7.6,1.3-7.8-2.1c-0.2-3.5,0.1-6.9-0.1-10.4c-0.3-4.3-4.1-5.9-7.2-7.9
				C4.1-115.8,2.6-113.2,4.2-112.2z"/>
			<path class="st1" d="M17.5-97.9c4.3,0,8.6,0,12.9,0.7c5.7,0.9,8.3,4.7,11.4,9.2c1.1,1.6,3.7,0.1,2.6-1.5
				c-2.9-4.2-5.5-8.1-10.4-10c-4.9-1.9-11.3-1.4-16.5-1.4C15.6-100.9,15.6-97.9,17.5-97.9z"/>
			<path class="st1" d="M16.3-107.7c0,0.1,0,0.1,0,0.2c0.8,4.8,4.7,4.6,8.7,4.7c5.4,0.2,10.9,0.5,16.3,0.6
				c8.2,0.2,18.5,1.4,18.9-9.6c0.2-4.7-4.6-4.5-8.1-4.7c-5.7-0.4-11.5-0.2-17.2-0.1c-4.5,0.1-9,0.2-13.5,0.5
				c-5.4,0.4-5.5,3.8-5.1,8.2C16.2-107.9,16.3-107.8,16.3-107.7z M20.4-113c1.1-0.4,2.7-0.3,3.9-0.3c3.5-0.2,7.1-0.3,10.6-0.4
				c2.2-0.1,22.9-1.4,22.2,2.5c-0.8,4.4-2.3,5.4-6.4,5.8c-3.5,0.3-7.1,0.2-10.6,0.1c-3-0.1-20.2,1.1-21-3
				C19-110,18.3-112.3,20.4-113z"/>
			<path class="st1" d="M24.9-107.5c1.2,0,2.3-1,2.3-2.3c0-1.2-1-2.3-2.3-2.3s-2.3,1-2.3,2.3C22.6-108.5,23.6-107.5,24.9-107.5z"/>
			<path class="st1" d="M33.8-108.1c1.1-0.3,1.7-1.6,1.1-2.6c-0.5-0.8-1.6-1.1-2.5-0.6c-0.9,0.5-1.1,1.6-0.6,2.5
				C32.2-108.2,33.1-107.9,33.8-108.1z"/>
			<path class="st1" d="M41-107.5c1.2,0,2.2-1,2.2-2.2c0-1.2-1-2.2-2.2-2.2c-1.2,0-2.2,1-2.2,2.2C38.8-108.5,39.8-107.5,41-107.5z"
				/>
			<path class="st1" d="M49.5-107.5c1.2,0,2.3-1,2.3-2.3c0-1.2-1-2.3-2.3-2.3c-1.2,0-2.3,1-2.3,2.3
				C47.2-108.5,48.3-107.5,49.5-107.5z"/>
			<path class="st1" d="M55-95.9c1.9,0,1.9-3,0-3c-3.7-0.1-7.4,0.7-10.5,2.8c-1.6,1.1-0.1,3.7,1.5,2.6C48.7-95.3,51.8-95.9,55-95.9z
				"/>
			<path class="st1" d="M40.5-98.9c0,0.8,0.7,1.6,1.6,1.6c0.8,0,1.6-0.7,1.6-1.6c0-0.8-0.7-1.6-1.6-1.6
				C41.2-100.5,40.5-99.7,40.5-98.9z"/>
			<path class="st1" d="M58.6-96.9c0,1.2,1,2.2,2.2,2.2c1.2,0,2.2-1,2.2-2.2c0-1.2-1-2.2-2.2-2.2C59.6-99.1,58.6-98.1,58.6-96.9z"/>
		</g>
		<g>
			<path class="st1" d="M166.3-158.5c2.8-1.3,5.5-1.7,8.3-1.8c1.6,8.4,1.1,16.9,2.2,25.4c-0.2,0.1-0.3,0.3-0.4,0.5
				c-1.8,3.1-3.5,6.7-0.9,9.9c1.7,2.1,4.6,2.8,7.1,1.8c2.9-1.2,4.2-4.4,3.2-7.3c-0.9-2.5-3.3-4.7-6-5.4c-1.1-8.2-0.6-16.6-2.1-24.8
				c0.3,0,0.5,0,0.8,0.1c4.5,0.4,11.6,2.7,15.5-0.7c3.2-2.7,3.4-7.5,2.8-11.4c-1.3-9.2-15.6-8.3-22.1-7.4c-7.4,1-18,4.1-19.2,12.8
				c0,0,0,0,0,0c0,0.1-0.1,0.2-0.1,0.4c-0.1,3.2,1.1,7.8,4.8,8.6C162.4-157.4,164.2-157.6,166.3-158.5z M181.4-125.6
				c-1.3,0.5-2.7,0.1-3.7-0.9c-1.7-1.8-0.1-4.4,1-6.2C181.6-132.1,185.3-127.1,181.4-125.6z M158.5-166.4
				c1.9-11.4,22.3-12.2,30.8-9.8c5.1,1.5,5.4,6.7,4.1,11c-1.3,4.4-8.4,2.7-11.6,2.3c-4-0.5-7.8-0.9-11.8-0.3
				c-1.4,0.2-2.8,0.8-4.1,1.4C161.4-159.6,158.4-161.7,158.5-166.4z"/>
			<path class="st1" d="M171.6-141c-0.9,0.5-1.9,0.8-2.9,1.1c-1.9,0.5-1.1,3.4,0.8,2.9c1.2-0.3,2.5-0.8,3.6-1.4
				c0.7-0.4,0.9-1.4,0.5-2.1C173.2-141.2,172.3-141.4,171.6-141z"/>
			<path class="st1" d="M192.6-154.3c-3.3,0-6.6,0-9.9-0.4c-1.9-0.3-2.7,2.6-0.8,2.9c3.5,0.5,7.1,0.6,10.6,0.6
				C194.6-151.3,194.6-154.3,192.6-154.3z"/>
			<path class="st1" d="M191.7-146.6c-2.8-0.5-5.7-1.1-8.5-1.2c-1.9,0-1.9,3,0,3c2.6,0,5.2,0.6,7.7,1.1
				C192.8-143.4,193.6-146.2,191.7-146.6z"/>
			<path class="st1" d="M190.3-139.7c-1.9-0.6-3.8-1-5.8-1.3c-1.9-0.3-2.7,2.6-0.8,2.9c2,0.3,3.9,0.7,5.8,1.3
				C191.4-136.2,192.2-139.1,190.3-139.7z"/>
			<path class="st1" d="M228.4-138.3c1.4-3,0.2-8.8-0.7-11.8c-1-3.9-6.6-4.7-9.7-5.9c-4.8-1.8-9.2-3-13.9-1.1
				c-2.5,0.9-6.4,2.6-7.1,5.5c0,0.1-0.1,0.3-0.1,0.4c0,4.7-1,10.2,0.9,14.6c1.3,3,6.1,2.4,8.7,2.3c2.7-0.1,5.3-0.3,8-0.4
				c0.6,4.9-5.4,4.2-8.8,4.6c-3.8,0.4-7.8,0.2-11.6,0.8c-5.4,0.8-4.9,5.3-4.3,9.8c0.3,1.9,3.3,1.9,3,0c-0.2-1.7-0.3-3.3-0.3-5
				c0-2,3-2.2,5.1-2.2c0.3,2.2,0.6,4.3,0.6,6.5c0,1.9,3,1.9,3,0c0-2.2-0.3-4.5-0.6-6.7c1.7-0.1,3.3-0.2,5-0.3c0.3,2.1,0.7,4.1,1,6.2
				c0.2,1.9,3.2,1.9,3,0c-0.3-2.1-0.8-4.2-1-6.4c1.1-0.1,2.1-0.1,3.2-0.2c0.2,0,0.4,0,0.6-0.1c0.8,1.8,1.8,3.5,2.2,5.4
				c0.4,1.9,3.3,1.1,2.9-0.8c-0.4-2-1.5-3.7-2.2-5.6c1.9-1.3,2.5-3.6,2.2-6.3c0.9-0.1,1.8-0.1,2.7-0.2
				C223.3-135.3,227-135.2,228.4-138.3z M200-140.1c-0.4-3.6-0.1-7.3-0.1-10.9c0.7-2,5.2-3.4,6.9-3.9c3.1-1,7.5,0.9,10.5,1.8
				c4.1,1.2,7.7,2.1,8.2,7c0.4,3.6,1,7.5-3.6,7.9c-5.1,0.5-10.2,0.7-15.3,0.9C203.7-137.2,200.4-136.4,200-140.1z"/>
			<path class="st1" d="M207.1-147.2c-1.3,0-2.4,1.1-2.4,2.4c0,1.3,1.1,2.4,2.4,2.4c1.3,0,2.4-1.1,2.4-2.4
				C209.5-146.1,208.4-147.2,207.1-147.2z"/>
			<path class="st1" d="M185.2-120.3c-8.1,5.1-17.2-1-15-10.5c0.4-1.9-2.4-2.7-2.9-0.8c-2.8,11.9,9,20.5,19.4,13.9
				C188.3-118.7,186.8-121.3,185.2-120.3z"/>
			<path class="st1" d="M201.5-160.2c4.4-7,3.2-20.5-4.8-24.6c-1.7-0.9-3.2,1.7-1.5,2.6c6.6,3.4,7.2,14.9,3.7,20.5
				C197.9-160,200.5-158.5,201.5-160.2z"/>
			<path class="st1" d="M224.7-202.8c0.6-0.5,0.5-1.6,0-2.1c-0.6-0.6-1.5-0.5-2.1,0c-0.2,0.2-0.4,0.3-0.6,0.5
				c-0.1,0.1-0.2,0.2-0.3,0.3c-0.1,0.1-0.1,0.1-0.2,0.2c0.1-0.1,0.1-0.1,0,0c-0.1,0.1-0.2,0.2-0.4,0.3c-0.3-0.5-0.7-0.9-1.1-1.4
				c-0.3-0.4-0.7-0.7-1.1-1c0.4-0.8,0.9-1.6,1.2-2.4c0.3-0.7,0.2-1.6-0.5-2.1c-0.6-0.4-1.7-0.2-2.1,0.5c-0.4,0.9-0.8,1.7-1.3,2.5
				c-1.1-0.4-2.2-0.7-3.4-0.8c-0.1-1.6,0.1-3.3,0.1-4.9c0-1.9-3-1.9-3,0c0,1.6-0.2,3.2-0.1,4.7c-3,0-6,0.4-8.4,0.8
				c-4.3,0.6-12.9,1.1-15.6,5.5c-0.2,0.2-0.4,0.4-0.4,0.8c-0.1,0.3-0.1,0.5-0.1,0.7c-0.6,4.9,0.4,10.1,5.6,11.9
				c3.6,1.3,7.2,0.2,10.7,2.3c4,2.3,5.2,7.4,5.7,11.7c0.7,6-0.5,11.6,6,14.3c4.1,1.7,9.5,0,10.5-4.6c1.6-7,0.5-15.4,0.2-22.5
				c-0.2-4.3,0-9.2-1.6-13.3c0.2-0.1,0.3-0.3,0.5-0.4C223.5-201.8,224.1-202.3,224.7-202.8z M221.1-167.8c-0.2,3.9-2.4,5.3-6.1,4.6
				c-3.6-0.7-4.4-3.6-4.6-6.8c-0.4-5.1-0.3-9.7-2.8-14.4c-1.6-3-4.4-5-7.4-6.2c-2-0.8-4.3-0.7-6.4-0.9c-5.2-0.3-6.3-4.9-5.6-9.3
				c1.4-3.5,12.2-4,15.1-4.4c5.3-0.6,12.6-1.5,15.8,3.8c2.6,4.4,1.8,11.7,2,16.6C221.3-179,221.4-173.4,221.1-167.8z"/>
			<path class="st1" d="M165-117.2c-1.2,0-2.2,1-2.2,2.2c0,1.2,1,2.2,2.2,2.2c1.2,0,2.2-1,2.2-2.2
				C167.2-116.2,166.2-117.2,165-117.2z"/>
			<path class="st1" d="M164.8-121.1c0-0.9-0.8-1.7-1.7-1.7c-0.9,0-1.7,0.8-1.7,1.7c0,0.9,0.8,1.7,1.7,1.7
				C164.1-119.5,164.8-120.2,164.8-121.1z"/>
			<path class="st1" d="M171.5-157c-2.4,0.1-4.9,0.7-7.1,1.6c-1.8,0.6-1,3.5,0.8,2.9c2-0.7,4.2-1.4,6.3-1.4
				C173.5-154.1,173.5-157.1,171.5-157z"/>
			<path class="st1" d="M172.8-148.9c-1.3,0.2-2.7,0.5-4,0.7c-0.8,0.1-1.5,0.6-1.5,1.5c0,0.7,0.7,1.6,1.5,1.5c1.3-0.2,2.7-0.5,4-0.7
				c0.8-0.1,1.5-0.6,1.5-1.5C174.3-148.1,173.6-149,172.8-148.9z"/>
		</g>
		<g>
			<path class="st1" d="M73.7-98.9c2.8-1.3,5.5-1.7,8.3-1.8c1.6,8.4,1.1,16.9,2.2,25.4c-0.2,0.1-0.3,0.3-0.4,0.5
				c-1.8,3.1-3.5,6.7-0.9,9.9c1.7,2.1,4.6,2.8,7.1,1.8c2.9-1.2,4.2-4.4,3.2-7.3c-0.9-2.5-3.3-4.7-6-5.4c-1.1-8.2-0.6-16.6-2.1-24.8
				c0.3,0,0.5,0,0.8,0.1c4.5,0.4,11.6,2.7,15.5-0.7c3.2-2.7,3.4-7.5,2.8-11.4c-1.3-9.2-15.6-8.3-22.1-7.4c-7.4,1-18,4.1-19.2,12.8
				c0,0,0,0,0,0c0,0.1-0.1,0.2-0.1,0.4c-0.1,3.2,1.1,7.8,4.8,8.6C69.9-97.7,71.7-98,73.7-98.9z M88.9-65.9c-1.3,0.5-2.7,0.1-3.7-0.9
				c-1.7-1.8-0.1-4.4,1-6.2C89.1-72.5,92.7-67.5,88.9-65.9z M65.9-106.7c1.9-11.4,22.3-12.2,30.8-9.8c5.1,1.5,5.4,6.7,4.1,11
				c-1.3,4.4-8.4,2.7-11.6,2.3c-4-0.5-7.8-0.9-11.8-0.3c-1.4,0.2-2.8,0.8-4.1,1.4C68.8-100,65.9-102,65.9-106.7z"/>
			<path class="st1" d="M73.7-106.2C73.7-106.2,73.7-106.2,73.7-106.2c0.1,0,0.2-0.1,0.2-0.1c-0.7,0.3,0,0,0.1-0.1c0,0-0.1,0-0.1,0
				c0.5-0.3,0.9-0.8,1-1.5c0.1-0.8-0.6-1.4-1.2-1.6c-0.2-0.1-0.4-0.1-0.6-0.1c-1.1,0-2,1.1-1.7,2.2
				C71.7-106.3,72.8-105.9,73.7-106.2z M73.4-106.2c0,0-0.1,0-0.1,0c-0.1,0-0.1,0-0.2,0C73.2-106.2,73.3-106.1,73.4-106.2z"/>
			<circle class="st1" cx="82.9" cy="-110.7" r="2.3"/>
			<circle class="st1" cx="94.4" cy="-110.2" r="2.3"/>
			<path class="st1" d="M79.1-81.4c-0.9,0.5-1.9,0.8-2.9,1.1c-1.9,0.5-1.1,3.4,0.8,2.9c1.2-0.3,2.5-0.8,3.6-1.4
				c0.7-0.4,0.9-1.4,0.5-2.1C80.7-81.6,79.8-81.7,79.1-81.4z"/>
			<path class="st1" d="M100.1-94.6c-3.3,0-6.6,0-9.9-0.4c-1.9-0.3-2.7,2.6-0.8,2.9c3.5,0.5,7.1,0.6,10.6,0.6
				C102-91.6,102-94.6,100.1-94.6z"/>
			<path class="st1" d="M99.1-86.9c-2.8-0.5-5.7-1.1-8.5-1.2c-1.9,0-1.9,3,0,3c2.6,0,5.2,0.6,7.7,1.1C100.2-83.7,101-86.6,99.1-86.9
				z"/>
			<path class="st1" d="M97.8-80c-1.9-0.6-3.8-1-5.8-1.3c-1.9-0.3-2.7,2.6-0.8,2.9c2,0.3,3.9,0.7,5.8,1.3
				C98.8-76.5,99.6-79.4,97.8-80z"/>
			<path class="st1" d="M135.9-78.7c1.4-3,0.2-8.8-0.7-11.8c-1-3.9-6.6-4.7-9.7-5.9c-4.8-1.8-9.2-3-13.9-1.1
				c-2.5,0.9-6.4,2.6-7.1,5.5c0,0.1-0.1,0.3-0.1,0.4c0,4.7-1,10.2,0.9,14.6c1.3,3,6.1,2.4,8.7,2.3c2.7-0.1,5.3-0.3,8-0.4
				c0.6,4.9-5.4,4.2-8.8,4.6c-3.8,0.4-7.8,0.2-11.6,0.8c-5.4,0.8-4.9,5.3-4.3,9.8c0.3,1.9,3.3,1.9,3,0c-0.2-1.7-0.3-3.3-0.3-5
				c0-2,3-2.2,5.1-2.2c0.3,2.2,0.6,4.3,0.6,6.5c0,1.9,3,1.9,3,0c0-2.2-0.3-4.5-0.6-6.7c1.7-0.1,3.3-0.2,5-0.3c0.3,2.1,0.7,4.1,1,6.2
				c0.2,1.9,3.2,1.9,3,0c-0.3-2.1-0.8-4.2-1-6.4c1.1-0.1,2.1-0.1,3.2-0.2c0.2,0,0.4,0,0.6-0.1c0.8,1.8,1.8,3.5,2.2,5.4
				c0.4,1.9,3.3,1.1,2.9-0.8c-0.4-2-1.5-3.7-2.2-5.6c1.9-1.3,2.5-3.6,2.2-6.3c0.9-0.1,1.8-0.1,2.7-0.2
				C130.8-75.7,134.4-75.6,135.9-78.7z M107.4-80.5c-0.4-3.6-0.1-7.3-0.1-10.9c0.7-2,5.2-3.4,6.9-3.9c3.1-1,7.5,0.9,10.5,1.8
				c4.1,1.2,7.7,2.1,8.2,7c0.4,3.6,1,7.5-3.6,7.9c-5.1,0.5-10.2,0.7-15.3,0.9C111.2-77.5,107.9-76.8,107.4-80.5z"/>
			<path class="st1" d="M114.6-87.6c-1.3,0-2.4,1.1-2.4,2.4c0,1.3,1.1,2.4,2.4,2.4c1.3,0,2.4-1.1,2.4-2.4
				C117-86.5,115.9-87.6,114.6-87.6z"/>
			<path class="st1" d="M125.6-87.6c-1.3,0-2.4,1.1-2.4,2.4c0,1.3,1.1,2.4,2.4,2.4c1.3,0,2.4-1.1,2.4-2.4
				C128-86.5,126.9-87.6,125.6-87.6z"/>
			<path class="st1" d="M92.7-60.6c-8.1,5.1-17.2-1-15-10.5c0.4-1.9-2.4-2.7-2.9-0.8C72-60,83.8-51.4,94.2-58
				C95.8-59.1,94.3-61.7,92.7-60.6z"/>
			<path class="st1" d="M108.9-100.5c4.4-7,3.2-20.5-4.8-24.6c-1.7-0.9-3.2,1.7-1.5,2.6c6.6,3.4,7.2,14.9,3.7,20.5
				C105.3-100.4,107.9-98.9,108.9-100.5z"/>
			<path class="st1" d="M116.1-141.1c-1.2,0-2.3,1-2.3,2.3c0,1.2,1,2.3,2.3,2.3c1.2,0,2.3-1,2.3-2.3
				C118.4-140.1,117.3-141.1,116.1-141.1z"/>
			<path class="st1" d="M106.8-140.1c-2.5,0-2.5,3.9,0,3.9C109.3-136.3,109.3-140.1,106.8-140.1z"/>
			<path class="st1" d="M132.1-143.1c0.6-0.5,0.5-1.6,0-2.1c-0.6-0.6-1.5-0.5-2.1,0c-0.2,0.2-0.4,0.3-0.6,0.5
				c-0.1,0.1-0.2,0.2-0.3,0.3c-0.1,0.1-0.1,0.1-0.2,0.2c0.1-0.1,0.1-0.1,0,0c-0.1,0.1-0.2,0.2-0.4,0.3c-0.3-0.5-0.7-0.9-1.1-1.4
				c-0.3-0.4-0.7-0.7-1.1-1c0.4-0.8,0.9-1.6,1.2-2.4c0.3-0.7,0.2-1.6-0.5-2.1c-0.6-0.4-1.7-0.2-2.1,0.5c-0.4,0.9-0.8,1.7-1.3,2.5
				c-1.1-0.4-2.2-0.7-3.4-0.8c-0.1-1.6,0.1-3.3,0.1-4.9c0-1.9-3-1.9-3,0c0,1.6-0.2,3.2-0.1,4.7c-3,0-6,0.4-8.4,0.8
				c-4.3,0.6-12.9,1.1-15.6,5.5c-0.2,0.2-0.4,0.4-0.4,0.8c-0.1,0.3-0.1,0.5-0.1,0.7c-0.6,4.9,0.4,10.1,5.6,11.9
				c3.6,1.3,7.2,0.2,10.7,2.3c4,2.3,5.2,7.4,5.7,11.7c0.7,6-0.5,11.6,6,14.3c4.1,1.7,9.5,0,10.5-4.6c1.6-7,0.5-15.4,0.2-22.5
				c-0.2-4.3,0-9.2-1.6-13.3c0.2-0.1,0.3-0.3,0.5-0.4C130.9-142.2,131.5-142.6,132.1-143.1z M128.5-108.1c-0.2,3.9-2.4,5.3-6.1,4.6
				c-3.6-0.7-4.4-3.6-4.6-6.8c-0.4-5.1-0.3-9.7-2.8-14.4c-1.6-3-4.4-5-7.4-6.2c-2-0.8-4.3-0.7-6.4-0.9c-5.2-0.3-6.3-4.9-5.6-9.3
				c1.4-3.5,12.2-4,15.1-4.4c5.3-0.6,12.6-1.5,15.8,3.8c2.6,4.4,1.8,11.7,2,16.6C128.8-119.3,128.9-113.7,128.5-108.1z"/>
			<path class="st1" d="M125.2-114.4c0-6.2-1-12.5-3.7-18.1c-0.8-1.7-3.4-0.2-2.6,1.5c2.5,5.1,3.3,10.9,3.3,16.6
				C122.2-112.5,125.2-112.4,125.2-114.4z"/>
			<path class="st1" d="M123.4-110.5c-1.2,0-2.2,1-2.2,2.2c0,1.2,1,2.2,2.2,2.2c1.2,0,2.2-1,2.2-2.2
				C125.6-109.5,124.6-110.5,123.4-110.5z"/>
			<path class="st1" d="M92.5-123.4c1.2,0,2.2-1,2.2-2.2c0-1.2-1-2.2-2.2-2.2c-1.2,0-2.2,1-2.2,2.2
				C90.3-124.4,91.3-123.4,92.5-123.4z"/>
			<path class="st1" d="M98.2-125.9C98.2-125.9,98.2-125.9,98.2-125.9c-0.4,0-0.7,0.2-0.9,0.5c-0.1,0.2-0.2,0.4-0.2,0.6
				c0,0.3,0.1,0.5,0.2,0.6c0.2,0.3,0.5,0.5,0.9,0.5c0,0,0,0,0,0c0.2,0,0.4,0,0.5-0.1c0.9-0.4,0.9-1.6,0-2
				C98.6-125.9,98.5-125.9,98.2-125.9z"/>
			<path class="st1" d="M144.4-115.4c0,0-0.1,0-0.1,0c-1.1-0.1-2,0.9-2,2c0,1,0.9,2,2,2c0,0,0.1,0,0.1,0c1.1-0.1,1.9-0.8,1.9-1.9
				C146.4-114.6,145.5-115.3,144.4-115.4z"/>
			<path class="st1" d="M151.7-111.3c1,0,1.9-0.8,1.9-1.9c0-1-0.8-1.9-1.9-1.9c-1,0-1.9,0.8-1.9,1.9
				C149.9-112.2,150.7-111.3,151.7-111.3z"/>
			<path class="st1" d="M162.3-69.5c0.5-0.8-0.5,0.1-0.7,0.2c-0.7,0.4-1.4,0.7-2.1,1.1c-1.7,1-3.3,2.2-4.9,3.4c-1.7-4-3-8.1-4.9-12
				c0-0.2,0-0.3,0-0.5c0-6.1,0-12.2,0-18.3c2-0.3,5.2-0.8,5.3,0.7c0.2,2.1-0.6,4.2-0.2,6.3c0.1,0.6,0.8,1.2,1.4,1.1
				c1.5-0.2,2.9-0.3,4.4-0.4c1.9-0.1,1.9-3.1,0-3c-1,0-2,0.1-3,0.2c0-2.3,1-4.6-0.3-6.7c-1.4-2.3-5-1.6-7.6-1.2c0-1.2,0-2.4,0-3.7
				c2.4-0.1,5-0.4,7.1-1.2c2.8-1.1,3.1-3.9,3.2-6.5c0.1-3.1-0.2-6.3-1-9.4c-0.8-3.1-2.6-4.2-5.7-4.8c-6.4-1.2-14.9-2-15.8,6.3
				c-0.3,4-1.6,9,0.9,12.5c1.7,2.5,5.2,2.9,7.9,3c0.2,0,0.3,0,0.5,0c0,1.4,0,2.8,0,4.2c-1.1,0.3-2.2,0.6-3.4,0.9
				c-1.9,0.5-4,1.6-4.8-0.6c-1.3-3.5-3.3-3.3-6.6-2.9c-1.9,0.2-1.9,3.2,0,3c0.9-0.1,1.8-0.3,2.7-0.4c0.8-0.1,1.2,1.8,1.4,2.3
				c0.5,1.1,1.2,2,2.4,2.3c2.5,0.6,5.6-0.7,8.2-1.5c0,5.6,0,11.2,0,16.7c-4.8,2.3-9.8,4.3-14.6,6.6c-0.9,0.4-1,1.7-0.3,2.4
				c3.2,3.1,6.3,6.3,9.8,9.1c1.5,1.2,3.6-0.9,2.1-2.1c-2.9-2.4-5.5-5-8.2-7.6c3.9-1.8,7.9-3.5,11.8-5.3c2.1,4.4,3.5,9,5.5,13.4
				c0.3,0.7,1.4,1,2.1,0.5c2.2-1.5,4.3-3.3,6.7-4.6c1.1-0.6,2.8-1.1,3.5-2.2C165.9-69.6,163.3-71.1,162.3-69.5z M140.5-107.4
				c-1.7-2.4-0.2-7.7,0-10.4c0.6-5.8,9-3.9,13.1-3.2c3.9,0.7,3.4,8,3.4,11.1c0,5.1-6,4.6-9.8,4.7
				C144.9-105.2,141.9-105.3,140.5-107.4z"/>
			<path class="st1" d="M143.6-87.6c0-1.1-0.8-1.9-1.8-2c0,0,0,0,0,0c-0.1,0-0.1,0-0.2,0c0,0-0.1,0-0.1,0c0,0,0,0,0,0c0,0,0,0,0,0
				c-0.6,0-1.2,0.3-1.6,0.8c-0.3,0.3-0.5,0.8-0.5,1.3c0,0.5,0.2,0.9,0.5,1.3c0.4,0.5,0.9,0.8,1.6,0.8c0,0,0,0,0,0c0,0,0,0,0,0
				c0,0,0.1,0,0.1,0c0.1,0,0.1,0,0.2,0c0,0,0,0,0,0C142.8-85.7,143.6-86.5,143.6-87.6z"/>
			<path class="st1" d="M141.8-80.4c1.5,0,1.5-2.4,0-2.4S140.3-80.4,141.8-80.4z"/>
			<path class="st1" d="M144.8-69.8c-1,0-1.8,0.8-1.8,1.8c0,1,0.8,1.8,1.8,1.8c1,0,1.8-0.8,1.8-1.8C146.6-69,145.8-69.8,144.8-69.8z
				"/>
			<path class="st1" d="M142.8-150.8C142.8-150.8,142.8-150.8,142.8-150.8c-3.4,0.6-4.4,5-5.1,7.7c-0.7,2.7-1,5.4-1.4,8.1
				c-0.2,1.5-0.9,3.6-0.7,5.2c0.5,3,6.1,2.5,8.2,2.5c5-0.1,5-2,5.3-6.6c0.3-4.3,1.4-5.2,5.5-5.5c2.2-0.2,4.3,0,6.5,0.1
				c3.5,0,3.8-4.9,3.6-7.3c-0.2-4.1-2.5-4.5-6-4.5c-5.2,0.1-10.4,0.3-15.6,0.3C143.1-150.8,143-150.8,142.8-150.8z M157.7-148.1
				c2.4-0.1,4-0.6,4.2,2.3c0.2,4.3-1.9,3.4-5.2,3.4c-2.8,0-6.2,0.1-8.5,1.8c-2,1.5-1.8,4.5-2,6.7c-0.2,2.2,0.8,3.3-1.4,3.5
				c-1.9,0.2-3.9,0.1-5.8-0.3c-0.4-0.1,0-1.5,0.2-2.6c0.2-1.6,0.5-3.3,0.7-4.9c0.4-2.2,1-9,3.7-9.7c2.8,0,5.5-0.1,8.3-0.1
				C153.8-148,155.8-148,157.7-148.1z"/>
			<path class="st1" d="M157.5-135.7c-2.4-0.1-4.5,1.6-4.9,3.9c-0.1,0.2-0.1,0.3-0.1,0.5c0,0.2,0,0.3,0,0.5c0.2,2.4,2,4,4.3,4.3
				c2.6,0.3,4.7-1.8,4.9-4.2C162-133.5,160.2-135.6,157.5-135.7z M155.5-131.3c0.1-0.9,1-1.4,1.8-1.4c1.1-0.1,1.5,0.7,1.5,1.7
				C158.7-128.8,155.4-129.2,155.5-131.3z"/>
			<path class="st1" d="M82.5-142.2c6-0.1,15.8-4.5,17.3-10.9c0.1-0.2,0.1-0.4,0.1-0.7c0-0.1,0-0.3,0-0.4c0-3.6,0.2-9-2.4-11.7
				c-2.8-2.9-6.6-4.1-10.4-5.1c-2.5-0.7-7.3-2.5-9.8-0.9c-3.3,2.2-4.2,6.2-4.4,9.9C72.2-154.1,71.9-142,82.5-142.2z M75.8-160.8
				c0.1-2.5,0.5-9.1,4.6-8.6c2.3,0.3,4.7,1,7,1.6c2.6,0.7,5.2,1.6,7.3,3.4c2.7,2.2,2.2,7.5,2.2,10.6c-0.6,4.9-9.3,7.5-13.2,8.4
				C74.6-143.3,75.6-155,75.8-160.8z"/>
			<path class="st1" d="M79.7-163.9c3.9,1.5,8,2.6,12,4c1.8,0.6,2.6-2.3,0.8-2.9c-4-1.3-8.1-2.5-12-4
				C78.7-167.5,77.9-164.6,79.7-163.9z"/>
			<path class="st1" d="M79.3-155.5c4.4,0.4,8.9,0.7,13.3,0.7c1.9,0,1.9-3,0-3c-4.4,0-8.9-0.2-13.3-0.7
				C77.4-158.7,77.4-155.7,79.3-155.5z"/>
			<path class="st1" d="M80.8-152.2c-1.2,0-2.2,1-2.2,2.2c0,1.2,1,2.2,2.2,2.2c1.2,0,2.2-1,2.2-2.2C83-151.2,82-152.2,80.8-152.2z"
				/>
			<path class="st1" d="M86.2-152.7C86.1-152.7,86.1-152.7,86.2-152.7c-1.2,0.2-1.7,1.8-1.1,2.7c0.6,1.1,2,1.1,2.8,0.4c0,0,0,0,0,0
				c0.6-0.5,0.7-1.5,0.3-2.2C87.7-152.7,87-152.8,86.2-152.7z"/>
			<path class="st1" d="M91.3-152.9c-1.2,0-1.2,1.8,0,1.8C92.4-151.1,92.4-152.9,91.3-152.9z"/>
			<path class="st1" d="M96.8-171.8c0.9,0.6,1.9,1.2,2.9,1.8c2.6,1.6,2.9,3.6,3,6.5c0.1,2.9-0.7,6.5,0.1,9.4
				c1.2,4.2,7.2,3.7,10.6,3.3c1.9-0.2,1.9-3.2,0-3c-2.2,0.3-7.6,1.3-7.8-2.1c-0.2-3.5,0.1-6.9-0.1-10.4c-0.3-4.3-4.1-5.9-7.2-7.9
				C96.7-175.5,95.2-172.9,96.8-171.8z"/>
			<path class="st1" d="M110-157.5c4.3,0,8.6,0,12.9,0.7c5.7,0.9,8.3,4.7,11.4,9.2c1.1,1.6,3.7,0.1,2.6-1.5
				c-2.9-4.2-5.5-8.1-10.4-10c-4.9-1.9-11.3-1.4-16.5-1.4C108.1-160.5,108.1-157.5,110-157.5z"/>
			<path class="st1" d="M108.8-167.4c0,0.1,0,0.1,0,0.2c0.8,4.8,4.7,4.6,8.7,4.7c5.4,0.2,10.9,0.5,16.3,0.6
				c8.2,0.2,18.5,1.4,18.9-9.6c0.2-4.7-4.6-4.5-8.1-4.7c-5.7-0.4-11.5-0.2-17.2-0.1c-4.5,0.1-9,0.2-13.5,0.5
				c-5.4,0.4-5.5,3.8-5.1,8.2C108.8-167.5,108.8-167.5,108.8-167.4z M112.9-172.7c1.1-0.4,2.7-0.3,3.9-0.3c3.5-0.2,7.1-0.3,10.6-0.4
				c2.2-0.1,22.9-1.4,22.2,2.5c-0.8,4.4-2.3,5.4-6.4,5.8c-3.5,0.3-7.1,0.2-10.6,0.1c-3-0.1-20.2,1.1-21-3
				C111.5-169.6,110.8-171.9,112.9-172.7z"/>
			<path class="st1" d="M117.4-167.1c1.2,0,2.3-1,2.3-2.3c0-1.2-1-2.3-2.3-2.3s-2.3,1-2.3,2.3C115.2-168.1,116.2-167.1,117.4-167.1z
				"/>
			<path class="st1" d="M126.4-167.8c1.1-0.3,1.7-1.6,1.1-2.6c-0.5-0.8-1.6-1.1-2.5-0.6c-0.9,0.5-1.1,1.6-0.6,2.5
				C124.7-167.9,125.6-167.6,126.4-167.8z"/>
			<path class="st1" d="M133.5-167.2c1.2,0,2.2-1,2.2-2.2c0-1.2-1-2.2-2.2-2.2c-1.2,0-2.2,1-2.2,2.2
				C131.3-168.2,132.3-167.2,133.5-167.2z"/>
			<path class="st1" d="M142-167.1c1.2,0,2.3-1,2.3-2.3c0-1.2-1-2.3-2.3-2.3c-1.2,0-2.3,1-2.3,2.3
				C139.8-168.1,140.8-167.1,142-167.1z"/>
			<path class="st1" d="M147.5-155.5c1.9,0,1.9-3,0-3c-3.7-0.1-7.4,0.7-10.5,2.8c-1.6,1.1-0.1,3.7,1.5,2.6
				C141.2-154.9,144.3-155.6,147.5-155.5z"/>
			<path class="st1" d="M133-158.5c0,0.8,0.7,1.6,1.6,1.6c0.8,0,1.6-0.7,1.6-1.6c0-0.8-0.7-1.6-1.6-1.6
				C133.7-160.1,133-159.4,133-158.5z"/>
			<path class="st1" d="M151.1-156.5c0,1.2,1,2.2,2.2,2.2c1.2,0,2.2-1,2.2-2.2c0-1.2-1-2.2-2.2-2.2
				C152.1-158.7,151.1-157.7,151.1-156.5z"/>
			<path class="st1" d="M64.5-130.8c1.5-1,3.1-2,4.7-2.8c1-0.5,2.5-1.4,3.5-0.5c1.2,1,1.8,3.1,2.4,4.6c0.3,0.9,1.5,3,0.4,3.8
				c-1.1,0.8-2.4,1.4-3.6,2c-2.2,1.2-4.4,2.5-6.5,3.8c-1.6,1-0.1,3.6,1.5,2.6c3.5-2.1,7.4-3.9,10.7-6.3c2.7-1.9,0.9-5.3,0-7.7
				c-1-2.7-2.4-5.7-5.6-6.1c-3-0.4-6.7,2.7-9,4.2C61.4-132.4,62.9-129.8,64.5-130.8z"/>
			<path class="st1" d="M68.8-144.2c-3.2,1.3-6.3,2.6-8.9,4.9c-1.5,1.3,0.7,3.4,2.1,2.1c2.2-1.9,4.9-3,7.6-4.1
				C71.3-142,70.6-144.9,68.8-144.2z"/>
			<path class="st1" d="M86.5-127.9c-1.6,0.1-2,0.4-2.2-1.3c-0.1-1.1-0.2-2.1-0.6-3.2c-0.9-2.6-2.2-5-4.1-7
				c-1.3-1.4-3.4,0.7-2.1,2.1c2.5,2.7,3.4,5.6,3.9,9.1c0.5,3.2,2.2,3.5,5.1,3.3C88.5-125,88.5-128,86.5-127.9z"/>
			<path class="st1" d="M90.4-131c-0.6-3-1.3-5.9-2.5-8.6c-0.8-1.8-3.4-0.2-2.6,1.5c1.1,2.5,1.7,5.2,2.2,7.9
				C87.8-128.3,90.7-129.1,90.4-131z"/>
			<path class="st1" d="M130-64.1C129.9-64.1,129.9-64.1,130-64.1L130-64.1z"/>
			<path class="st1" d="M132.7-63c0-0.1-0.2-0.4-0.3-0.7c-0.5-0.6-1.2-0.9-1.9-0.6c0,0,0,0,0,0c-0.1,0.1-0.4,0.1-0.5,0.2
				c0,0,0.1,0,0.3-0.1c-1.7,0.5-2,2.8-0.5,3.7c0.6,0.4,1.4,0.4,2.1,0c0.8-0.5,1.1-1.4,0.9-2.3C132.7-62.9,132.7-62.9,132.7-63z"/>
			<path class="st1" d="M132.3-63.6c0,0,0.1,0.1,0.1,0.1C132.2-63.9,132.2-63.8,132.3-63.6z"/>
			<path class="st1" d="M72.4-57.6c-1.2,0-2.2,1-2.2,2.2c0,1.2,1,2.2,2.2,2.2c1.2,0,2.2-1,2.2-2.2C74.6-56.6,73.6-57.6,72.4-57.6z"
				/>
			<path class="st1" d="M72.3-61.5c0-0.9-0.8-1.7-1.7-1.7c-0.9,0-1.7,0.8-1.7,1.7c0,0.9,0.8,1.7,1.7,1.7
				C71.5-59.8,72.3-60.6,72.3-61.5z"/>
			<path class="st1" d="M79-97.4c-2.4,0.1-4.9,0.7-7.1,1.6c-1.8,0.6-1,3.5,0.8,2.9c2-0.7,4.2-1.4,6.3-1.4
				C80.9-94.4,80.9-97.4,79-97.4z"/>
			<path class="st1" d="M80.2-89.2c-1.3,0.2-2.7,0.5-4,0.7c-0.8,0.1-1.5,0.6-1.5,1.5c0,0.7,0.7,1.6,1.5,1.5c1.3-0.2,2.7-0.5,4-0.7
				c0.8-0.1,1.5-0.6,1.5-1.5C81.7-88.5,81-89.3,80.2-89.2z"/>
		</g>
		<g>
			<path class="st1" d="M43.4-138.3c1.4-3,0.2-8.8-0.7-11.8c-1-3.9-6.6-4.7-9.7-5.9c-4.8-1.8-9.2-3-13.9-1.1
				c-2.5,0.9-6.4,2.6-7.1,5.5c0,0.1-0.1,0.3-0.1,0.4c0,4.7-1,10.2,0.9,14.6c1.3,3,6.1,2.4,8.7,2.3c2.7-0.1,5.3-0.3,8-0.4
				c0.6,4.9-5.4,4.2-8.8,4.6c-3.8,0.4-7.8,0.2-11.6,0.8c-5.4,0.8-4.9,5.3-4.3,9.8c0.3,1.9,3.3,1.9,3,0c-0.2-1.7-0.3-3.3-0.3-5
				c0-2,3-2.2,5.1-2.2c0.3,2.2,0.6,4.3,0.6,6.5c0,1.9,3,1.9,3,0c0-2.2-0.3-4.5-0.6-6.7c1.7-0.1,3.3-0.2,5-0.3c0.3,2.1,0.7,4.1,1,6.2
				c0.2,1.9,3.2,1.9,3,0c-0.3-2.1-0.8-4.2-1-6.4c1.1-0.1,2.1-0.1,3.2-0.2c0.2,0,0.4,0,0.6-0.1c0.8,1.8,1.8,3.5,2.2,5.4
				c0.4,1.9,3.3,1.1,2.9-0.8c-0.4-2-1.5-3.7-2.2-5.6c1.9-1.3,2.5-3.6,2.2-6.3c0.9-0.1,1.8-0.1,2.7-0.2
				C38.2-135.3,41.9-135.2,43.4-138.3z M14.9-140.1c-0.4-3.6-0.1-7.3-0.1-10.9c0.7-2,5.2-3.4,6.9-3.9c3.1-1,7.5,0.9,10.5,1.8
				c4.1,1.2,7.7,2.1,8.2,7c0.4,3.6,1,7.5-3.6,7.9c-5.1,0.5-10.2,0.7-15.3,0.9C18.7-137.2,15.3-136.4,14.9-140.1z"/>
			<path class="st1" d="M22-147.2c-1.3,0-2.4,1.1-2.4,2.4c0,1.3,1.1,2.4,2.4,2.4c1.3,0,2.4-1.1,2.4-2.4
				C24.4-146.1,23.3-147.2,22-147.2z"/>
			<path class="st1" d="M33-147.2c-1.3,0-2.4,1.1-2.4,2.4c0,1.3,1.1,2.4,2.4,2.4c1.3,0,2.4-1.1,2.4-2.4
				C35.4-146.1,34.3-147.2,33-147.2z"/>
			<path class="st1" d="M39.6-202.8c0.6-0.5,0.5-1.6,0-2.1c-0.6-0.6-1.5-0.5-2.1,0c-0.2,0.2-0.4,0.3-0.6,0.5
				c-0.1,0.1-0.2,0.2-0.3,0.3c-0.1,0.1-0.1,0.1-0.2,0.2c0.1-0.1,0.1-0.1,0,0c-0.1,0.1-0.2,0.2-0.4,0.3c-0.3-0.5-0.7-0.9-1.1-1.4
				c-0.3-0.4-0.7-0.7-1.1-1c0.4-0.8,0.9-1.6,1.2-2.4c0.3-0.7,0.2-1.6-0.5-2.1c-0.6-0.4-1.7-0.2-2.1,0.5c-0.4,0.9-0.8,1.7-1.3,2.5
				c-1.1-0.4-2.2-0.7-3.4-0.8c-0.1-1.6,0.1-3.3,0.1-4.9c0-1.9-3-1.9-3,0c0,1.6-0.2,3.2-0.1,4.7c-3,0-6,0.4-8.4,0.8
				c-4.3,0.6-12.9,1.1-15.6,5.5c-0.2,0.2-0.4,0.4-0.4,0.8c-0.1,0.3-0.1,0.5-0.1,0.7c-0.6,4.9,0.4,10.1,5.6,11.9
				c3.6,1.3,7.2,0.2,10.7,2.3c4,2.3,5.2,7.4,5.7,11.7c0.7,6-0.5,11.6,6,14.3c4.1,1.7,9.5,0,10.5-4.6c1.6-7,0.5-15.4,0.2-22.5
				c-0.2-4.3,0-9.2-1.6-13.3c0.2-0.1,0.3-0.3,0.5-0.4C38.4-201.8,39-202.3,39.6-202.8z M36-167.8c-0.2,3.9-2.4,5.3-6.1,4.6
				c-3.6-0.7-4.4-3.6-4.6-6.8c-0.4-5.1-0.3-9.7-2.8-14.4c-1.6-3-4.4-5-7.4-6.2c-2-0.8-4.3-0.7-6.4-0.9c-5.2-0.3-6.3-4.9-5.6-9.3
				c1.4-3.5,12.2-4,15.1-4.4c5.3-0.6,12.6-1.5,15.8,3.8c2.6,4.4,1.8,11.7,2,16.6C36.3-179,36.3-173.4,36-167.8z"/>
			<path class="st1" d="M69.7-129.1c0.5-0.8-0.5,0.1-0.7,0.2c-0.7,0.4-1.4,0.7-2.1,1.1c-1.7,1-3.3,2.2-4.9,3.4c-1.7-4-3-8.1-4.9-12
				c0-0.2,0-0.3,0-0.5c0-6.1,0-12.2,0-18.3c2-0.3,5.2-0.8,5.3,0.7c0.2,2.1-0.6,4.2-0.2,6.3c0.1,0.6,0.8,1.2,1.4,1.1
				c1.5-0.2,2.9-0.3,4.4-0.4c1.9-0.1,1.9-3.1,0-3c-1,0-2,0.1-3,0.2c0-2.3,1-4.6-0.3-6.7c-1.4-2.3-5-1.6-7.6-1.2c0-1.2,0-2.4,0-3.7
				c2.4-0.1,5-0.4,7.1-1.2c2.8-1.1,3.1-3.9,3.2-6.5c0.1-3.1-0.2-6.3-1-9.4c-0.8-3.1-2.6-4.2-5.7-4.8c-6.4-1.2-14.9-2-15.8,6.3
				c-0.3,4-1.6,9,0.9,12.5c1.7,2.5,5.2,2.9,7.9,3c0.2,0,0.3,0,0.5,0c0,1.4,0,2.8,0,4.2c-1.1,0.3-2.2,0.6-3.4,0.9
				c-1.9,0.5-4,1.6-4.8-0.6c-1.3-3.5-3.3-3.3-6.6-2.9c-1.9,0.2-1.9,3.2,0,3c0.9-0.1,1.8-0.3,2.7-0.4c0.8-0.1,1.2,1.8,1.4,2.3
				c0.5,1.1,1.2,2,2.4,2.3c2.5,0.6,5.6-0.7,8.2-1.5c0,5.6,0,11.2,0,16.7c-4.8,2.3-9.8,4.3-14.6,6.6c-0.9,0.4-1,1.7-0.3,2.4
				c3.2,3.1,6.3,6.3,9.8,9.1c1.5,1.2,3.6-0.9,2.1-2.1c-2.9-2.4-5.5-5-8.2-7.6c3.9-1.8,7.9-3.5,11.8-5.3c2.1,4.4,3.5,9,5.5,13.4
				c0.3,0.7,1.4,1,2.1,0.5c2.2-1.5,4.3-3.3,6.7-4.6c1.1-0.6,2.8-1.1,3.5-2.2C73.4-129.2,70.8-130.7,69.7-129.1z M48-167
				c-1.7-2.4-0.2-7.7,0-10.4c0.6-5.8,9-3.9,13.1-3.2c3.9,0.7,3.4,8,3.4,11.1c0,5.1-6,4.6-9.8,4.7C52.3-164.8,49.4-165,48-167z"/>
			<path class="st1" d="M51-147.2c0-1.1-0.8-1.9-1.8-2c0,0,0,0,0,0c-0.1,0-0.1,0-0.2,0c0,0-0.1,0-0.1,0c0,0,0,0,0,0c0,0,0,0,0,0
				c-0.6,0-1.2,0.3-1.6,0.8c-0.3,0.3-0.5,0.8-0.5,1.3c0,0.5,0.2,0.9,0.5,1.3c0.4,0.5,0.9,0.8,1.6,0.8c0,0,0,0,0,0c0,0,0,0,0,0
				c0,0,0.1,0,0.1,0c0.1,0,0.1,0,0.2,0c0,0,0,0,0,0C50.2-145.3,51-146.2,51-147.2z"/>
			<path class="st1" d="M49.3-140c1.5,0,1.5-2.4,0-2.4S47.8-140,49.3-140z"/>
			<path class="st1" d="M52.3-129.5c-1,0-1.8,0.8-1.8,1.8c0,1,0.8,1.8,1.8,1.8c1,0,1.8-0.8,1.8-1.8C54-128.7,53.2-129.5,52.3-129.5z
				"/>
			<path class="st1" d="M37.4-123.8C37.4-123.8,37.4-123.8,37.4-123.8L37.4-123.8z"/>
			<path class="st1" d="M40.1-122.6c0-0.1-0.2-0.4-0.3-0.7c-0.5-0.6-1.2-0.9-1.9-0.6c0,0,0,0,0,0c-0.1,0.1-0.4,0.1-0.5,0.2
				c0,0,0.1,0,0.3-0.1c-1.7,0.5-2,2.8-0.5,3.7c0.6,0.4,1.4,0.4,2.1,0c0.8-0.5,1.1-1.4,0.9-2.3C40.2-122.5,40.2-122.6,40.1-122.6z"/>
			<path class="st1" d="M39.8-123.3c0,0,0.1,0.1,0.1,0.1C39.6-123.6,39.7-123.5,39.8-123.3z"/>
		</g>
	</g>
</pattern>
<rect class="st2" width="500" height="500"/>
<rect x="-0.3" class="st3" width="500" height="500"/>
</svg>
