<?xml version="1.0" encoding="utf-8"?>
<!-- Generator: Adobe Illustrator 23.1.0, SVG Export Plug-In . SVG Version: 6.00 Build 0)  -->
<svg version="1.1" xmlns="http://www.w3.org/2000/svg" xmlns:xlink="http://www.w3.org/1999/xlink" x="0px" y="0px"
	 viewBox="0 0 500 500" style="enable-background:new 0 0 500 500;" xml:space="preserve">
<style type="text/css">
	.st0{fill:#ECE5DD;}
	.st1{fill:#214357;}
	.st2{fill:#DBFFFE;}
	.st3{fill:#2D5B75;}
	.st4{fill:#356975;}
	.st5{fill:#FFFFFF;}
	.st6{fill:#EFD1B4;}
	.st7{opacity:0.2;fill:#FFFFFF;}
	.st8{fill:#E5B080;}
	.st9{fill:#FF6536;}
	.st10{clip-path:url(#SVGID_2_);}
	.st11{fill:#75472B;}
	.st12{fill:#FFD08A;}
	.st13{fill:#F5B67F;}
	.st14{fill:#8A1C1C;}
	.st15{fill:#661515;}
	.st16{fill:#EBEBEB;}
	.st17{fill:#408733;}
	.st18{opacity:0.1;}
	.st19{fill:#E29A60;}
	.st20{clip-path:url(#SVGID_4_);fill:#FFD48F;}
	.st21{clip-path:url(#SVGID_4_);}
	.st22{fill:#FFA347;}
	.st23{fill:#FFD48F;}
	.st24{fill:#F5C476;}
	.st25{fill:#8F6135;}
	.st26{fill:#36C976;}
	.st27{fill:#41FC94;}
	.st28{fill:#2EA661;}
	.st29{clip-path:url(#SVGID_6_);}
	.st30{fill:#FFC975;}
	.st31{clip-path:url(#SVGID_6_);fill:#FFFFFF;}
	.st32{fill:#EBB159;}
</style>
<g id="BACKGROUND">
	<rect class="st0" width="500" height="500"/>
</g>
<g id="OBJECTS">
	<path class="st1" d="M272.6,194.1h-71.2c-5,0-9,4-9,9v149.9c0,5,4,9,9,9h71.2c5,0,9-4,9-9V203.1
		C281.6,198.1,277.5,194.1,272.6,194.1z"/>
	<rect x="197.8" y="211.2" class="st2" width="77.9" height="133.4"/>
	<g>
		<path class="st3" d="M254.1,205.3h-24.9c-0.9,0-1.6-0.7-1.6-1.6l0,0c0-0.9,0.7-1.7,1.6-1.7h24.9c0.9,0,1.7,0.7,1.7,1.7l0,0
			C255.7,204.6,255,205.3,254.1,205.3z"/>
		<circle class="st4" cx="220.6" cy="203.7" r="2.7"/>
	</g>
	<g>
		<path class="st3" d="M242.3,353.1c0,3-2.4,5.4-5.4,5.4c-3,0-5.4-2.4-5.4-5.4s2.4-5.4,5.4-5.4C239.9,347.7,242.3,350.1,242.3,353.1
			z"/>
		<path class="st1" d="M241.5,353.1c0,2.5-2,4.5-4.5,4.5c-2.5,0-4.5-2-4.5-4.5s2-4.5,4.5-4.5C239.5,348.6,241.5,350.6,241.5,353.1z"
			/>
	</g>
	<path class="st5" d="M242.9,230.9h-36.8c-1,0-1.8,0.8-1.8,1.8v0.9l-4.1,2.4l4.1,2.4v1c0,1,0.8,1.8,1.8,1.8h36.8
		c1,0,1.8-0.8,1.8-1.8v-6.6C244.7,231.7,243.9,230.9,242.9,230.9z"/>
	<path class="st6" d="M230,255.5h36.8c1,0,1.8-0.8,1.8-1.8v-0.9l4.1-2.4l-4.1-2.4v-1c0-1-0.8-1.8-1.8-1.8H230c-1,0-1.8,0.8-1.8,1.8
		v6.6C228.2,254.7,229,255.5,230,255.5z"/>
	<path class="st6" d="M230,268.6h36.8c1,0,1.8-0.8,1.8-1.8v-0.9l4.1-2.4l-4.1-2.4v-1c0-1-0.8-1.8-1.8-1.8H230c-1,0-1.8,0.8-1.8,1.8
		v6.6C228.2,267.8,229,268.6,230,268.6z"/>
	<path class="st5" d="M258.9,274h-51.5c-1.6,0-2.9,1.3-2.9,2.9v0.1l-4.4,2.5l4.4,2.5v7.5c0,1.6,1.3,2.9,2.9,2.9h51.5
		c1.6,0,2.9-1.3,2.9-2.9v-12.6C261.8,275.3,260.5,274,258.9,274z"/>
	<path class="st6" d="M214.3,309.7h51.5c1.6,0,2.9,1.3,2.9,2.9v0.1l4.4,2.5l-4.4,2.5v7.5c0,1.6-1.3,2.9-2.9,2.9h-51.5
		c-1.6,0-2.9-1.3-2.9-2.9v-12.6C211.5,311,212.8,309.7,214.3,309.7z"/>
	<path class="st5" d="M243.1,296.3h-36.8c-1,0-1.8,0.8-1.8,1.8v0.8l-4.3,2.5l4.3,2.5v0.8c0,1,0.8,1.8,1.8,1.8h36.8
		c1,0,1.8-0.8,1.8-1.8v-6.6C244.9,297.1,244.1,296.3,243.1,296.3z"/>
	<rect x="197.8" y="211.2" class="st6" width="77.9" height="13.7"/>
	<rect x="197.8" y="333.9" class="st5" width="77.9" height="10.7"/>
	<g>
		<polygon class="st7" points="275.8,211.2 197.8,344.6 197.8,311.1 255.7,211.2 		"/>
		<polygon class="st7" points="197.8,280.4 238.3,211.2 217.7,211.2 197.8,244.5 		"/>
	</g>
	<path class="st8" d="M376.9,73.3H244.4c-20.9,0-37.9,17-37.9,37.9v0c0,20.9,17,37.9,37.9,37.9h132.5c20.9,0,37.9-17,37.9-37.9v0
		C414.8,90.3,397.8,73.3,376.9,73.3z"/>
	
		<ellipse transform="matrix(0.2298 -0.9732 0.9732 0.2298 80.8163 324.4787)" class="st9" cx="245.4" cy="111.2" rx="31.7" ry="31.7"/>
	<g>
		<defs>
			
				<ellipse id="SVGID_1_" transform="matrix(0.2298 -0.9732 0.9732 0.2298 80.8163 324.4787)" cx="245.4" cy="111.2" rx="31.7" ry="31.7"/>
		</defs>
		<clipPath id="SVGID_2_">
			<use xlink:href="#SVGID_1_"  style="overflow:visible;"/>
		</clipPath>
		<g class="st10">
			<g>
				<g>
					<path class="st11" d="M255.7,111.5c0,0-0.8,2.4-1.8,3.4c-1,1-1.9,1.3-1.9,1.3l1.9-5L255.7,111.5z"/>
				</g>
				<g>
					<path class="st11" d="M235.5,111.5c0,0,0.8,2.4,1.8,3.4c1,1,1.9,1.3,1.9,1.3l-1.9-5L235.5,111.5z"/>
				</g>
			</g>
			<path class="st5" d="M264.2,134.9c-1.6-8.7-2.9-13.1-12.7-13.5l-6,7.4l-6-7.4c-9.8,0.4-11.1,4.8-12.7,13.5
				c-0.9,4.7-1,11.2-1,11.2h19.7h0.1h19.7C265.2,146,265.1,139.6,264.2,134.9z"/>
			<g>
				<path class="st12" d="M250.4,119.4c0-1,0-6.6,0-6.6h-5h-5c0,0,0,5.5,0,6.6c0,1.5-0.4,1.7-1.1,2c1.1,1.9,2.7,9.9,6.2,10
					c3.5,0,4.8-8.1,5.9-10C250.8,121.2,250.4,120.9,250.4,119.4z"/>
			</g>
			<g>
				<g>
					<g>
						<path class="st12" d="M255,112c1.5,0.3,2.8-1.7,2.8-3.9c0-1.2-0.8-2.6-2-2.3c-1.5,0.4-1.8,1.8-1.8,1.8v3.4
							C254,111,254.2,111.9,255,112z"/>
					</g>
					<g>
						<path class="st13" d="M254.6,111.5c1,0.2,1.8-1.3,1.8-2.9c0-0.9-0.5-2-1.3-1.7c-1,0.3-1.2,1.4-1.2,1.4v2.5
							C254,110.8,254.1,111.4,254.6,111.5z"/>
					</g>
				</g>
				<g>
					<g>
						<path class="st12" d="M236.3,112c-1.5,0.3-2.8-1.7-2.8-3.9c0-1.2,0.8-2.6,2-2.3c1.5,0.4,1.8,1.8,1.8,1.8v3.4
							C237.4,111,237.1,111.9,236.3,112z"/>
					</g>
					<g>
						<path class="st13" d="M236.7,111.5c-1,0.2-1.8-1.3-1.8-2.9c0-0.9,0.5-2,1.3-1.7c1,0.3,1.2,1.4,1.2,1.4v2.5
							C237.4,110.8,237.2,111.4,236.7,111.5z"/>
					</g>
				</g>
			</g>
			<g>
				<path class="st13" d="M245.4,112.9h-5c0,0,0,2.8,0,4.8c1.5,1.7,3.5,2.8,6.1,2.8c1.5,0,2.8-0.4,3.9-1c0,0,0,0,0,0
					c0-1,0-6.6,0-6.6H245.4z"/>
			</g>
			<g>
				<path class="st12" d="M252.9,99c-2.9-2-11.6-2-14.5,0c-2.3,1.6-3.3,7.3-1.9,11.7c1.6,5.4,4.2,8.9,9.2,9c4.9-0.1,7.6-3.6,9.2-9
					C256.1,106.3,255.1,100.6,252.9,99z"/>
			</g>
			<g>
				<polygon class="st14" points="249.5,146 241.3,146 243.1,130.1 247.7,130.1 				"/>
			</g>
			<g>
				<path class="st15" d="M244.5,126.5h1.8l1.7,4.3c0.2,0.5-0.2,1-0.7,1l-3.9-0.1c-0.5,0-0.9-0.5-0.7-1L244.5,126.5z"/>
			</g>
			<g>
				<path class="st16" d="M241.8,123.6c1.9,1.9,2.8,2.8,2.8,2.8s-1.3,4.9-2.1,4c-0.8-0.8-5.1-6.9-4.1-9.2c0.2-0.5,1.9-0.9,1.9-0.9
					S240.4,122.2,241.8,123.6z"/>
			</g>
			<g>
				<path class="st16" d="M249,123.6c-1.9,1.9-2.8,2.8-2.8,2.8s1.3,4.9,2.1,4c0.8-0.8,5.1-6.9,4.1-9.2c-0.2-0.5-1.9-0.9-1.9-0.9
					S250.4,122.2,249,123.6z"/>
			</g>
			<g>
				<path class="st11" d="M235.8,106.3c0,0,0,0.8,0,1.3c0,0.4,0.2,1.6,0.2,1.6s1.7-3.8,4.1-4.7c2.4-0.9,4.5-1.2,6.1-2.3
					c1.6-1.1,3.2-1.7,3.2-1.7s2.5,4.1,3.3,4.3c0.8,0.2,1.1,0.9,1.4,1.7c0.4,0.8,0.9,3,0.9,3s0.5-1.4,0.5-2.1c0-0.7,0-1.6,0-1.6
					s0.3-0.1,0.6,0c0.3,0.1,0.4,0.1,0.4,0.1s0.4-3.2,0-5.3c-0.4-2-1.7-6.9-5.6-6.5c-0.8,0.1-1.8-2.4-8.6-1c-2.4,0.5-5,1.9-6.5,5.2
					c-0.8,1.7-0.8,7.6-0.8,7.6s0.3,0.1,0.5,0.2C235.7,106.1,235.8,106.3,235.8,106.3z"/>
			</g>
			<path class="st17" d="M245.5,146h19.7c0,0-0.2-6.5-1-11.2c-1.4-7.5-2.5-11.8-9.1-13.1c-1.5,4.5-5.4,14.8-9.8,14.9
				c-4.3-0.1-8.3-10.3-9.8-14.9c-6.5,1.3-7.6,5.6-9,13.1c-0.9,4.7-1,11.2-1,11.2h19.7H245.5z"/>
		</g>
	</g>
	<path class="st18" d="M246,79.5v63.3c17.5,0,31.7-14.2,31.7-31.7C277.6,93.7,263.5,79.5,246,79.5z"/>
	<g>
		<g>
			<path class="st19" d="M392.4,100.7h-91.1c-1.6,0-2.8,1.3-2.8,2.8l0,0c0,1.6,1.3,2.8,2.8,2.8h91.1c1.6,0,2.8-1.3,2.8-2.8l0,0
				C395.3,102,394,100.7,392.4,100.7z"/>
			<path class="st19" d="M392.4,114.7h-91.1c-1.6,0-2.8,1.3-2.8,2.8l0,0c0,1.6,1.3,2.8,2.8,2.8h91.1c1.6,0,2.8-1.3,2.8-2.8l0,0
				C395.3,115.9,394,114.7,392.4,114.7z"/>
			<path class="st19" d="M392.4,128.6h-91.1c-1.6,0-2.8,1.3-2.8,2.8v0c0,1.6,1.3,2.8,2.8,2.8h91.1c1.6,0,2.8-1.3,2.8-2.8v0
				C395.3,129.9,394,128.6,392.4,128.6z"/>
		</g>
		<path class="st19" d="M387.6,89.9c0-2.1,1.7-3.8,3.8-3.8c2.1,0,3.8,1.7,3.8,3.8c0,2.1-1.7,3.8-3.8,3.8
			C389.3,93.7,387.6,92,387.6,89.9z"/>
		<path class="st19" d="M375.3,89.9c0-2.1,1.7-3.8,3.8-3.8c2.1,0,3.8,1.7,3.8,3.8c0,2.1-1.7,3.8-3.8,3.8
			C377,93.7,375.3,92,375.3,89.9z"/>
		<path class="st19" d="M362.9,89.9c0-2.1,1.7-3.8,3.8-3.8s3.8,1.7,3.8,3.8c0,2.1-1.7,3.8-3.8,3.8S362.9,92,362.9,89.9z"/>
	</g>
	<path class="st8" d="M292.4,140.4v19.3c0,3.1,3.8,4.7,6,2.5l22.5-22.5L292.4,140.4z"/>
	<path class="st8" d="M217.3,156.9h-89.1c-18.2,0-33,14.8-33,33l0,0c0,18.2,14.8,33,33,33h89.1c18.2,0,33-14.8,33-33l0,0
		C250.4,171.6,235.6,156.9,217.3,156.9z"/>
	<circle class="st9" cx="129.1" cy="189.9" r="27.6"/>
	<g>
		<defs>
			<circle id="SVGID_3_" cx="129.1" cy="189.9" r="27.6"/>
		</defs>
		<clipPath id="SVGID_4_">
			<use xlink:href="#SVGID_3_"  style="overflow:visible;"/>
		</clipPath>
		<path class="st20" d="M139.2,199.9c-1.7,0-3.3,1.6-2.2,5.8c2.5,9.6,2.6,12.9,2.6,12.9h4.9c0,0-1.3-5.8-1.4-10.8
			C142.9,202.9,140.6,199.9,139.2,199.9z"/>
		<path class="st20" d="M119.1,199.9c1.7,0,3.3,1.6,2.2,5.8c-2.5,9.6-2.6,12.9-2.6,12.9h-4.9c0,0,1.3-5.8,1.4-10.8
			C115.4,202.9,117.7,199.9,119.1,199.9z"/>
		<g class="st21">
			<path class="st22" d="M134.7,197.6c0,0-3.9,4.1-5.6,4.1c-1.7,0-5.5-4.1-5.5-4.1c-4.7,0-8.5,3.6-8.5,8.1c0,0.1,0,0.3,0,0.3
				c0,0.1,0.1,0.2,0.3,0.3c1.3,0.2,4.9,2.7,4.9,2.7v4.1v5.6l17.9,0V213v-4.1c0,0,3.7-2.4,4.9-2.7c0.1,0,0.3-0.1,0.3-0.3
				c0,0,0-0.2,0-0.3C143.5,201.2,139.4,197.6,134.7,197.6z"/>
		</g>
		<g class="st21">
			<path class="st23" d="M133,196.1c0-0.8,0-5.3,0-5.3h-4.1h-4.1c0,0,0,4.5,0,5.3c0,1.2-1.5,1.4-2.1,1.6c-0.6,3.1,3.3,5.4,6.1,5.4
				c2.8,0,6.5-2.7,6.2-5.4C134.5,197.5,133,197.3,133,196.1z"/>
		</g>
		<g class="st21">
			<path class="st24" d="M133,196.5c0-0.1-0.1-0.2-0.1-0.4c0-0.8,0-5.3,0-5.3h-4.1h-4.1c0,0,0,2.1,0,3.7c1.2,1.9,2.9,2.8,5.2,2.8
				C131.2,197.3,132.2,197,133,196.5z"/>
		</g>
		<g class="st21">
			<path class="st23" d="M134.8,179.5c-2.3-1.6-9.1-1.6-11.4,0c-1.8,1.3-2.6,5.9-1.5,9.4c1.3,4.3,3.3,7.1,7.2,7.2
				c3.9-0.1,6-2.9,7.2-7.2C137.4,185.4,136.6,180.8,134.8,179.5z"/>
		</g>
		<g class="st21">
			<g>
				<path class="st25" d="M131.6,180.8c0,0,2.8,2.6,3.2,3.7c0.6,1.6,0.4,6.8,0.4,6.8l2.4-4.5c0,0,0.4-2,0.1-4
					c-1.6-11.2-16.8-9.5-17.4,0c-0.1,1.4,0.1,4,0.1,4l2.3,3.9c0,0-1.7-6,0-6.3C126.8,183.7,131.6,180.8,131.6,180.8z"/>
			</g>
			<g>
				<path class="st25" d="M120.5,181.9c0,0-1.6,6.9-1.8,9.3c-0.5,6.7,6.7,4.6,5.9,3C121.7,188.2,120.5,181.9,120.5,181.9z"/>
			</g>
			<g>
				<path class="st25" d="M137.5,181.9c0,0,1.6,6.9,1.8,9.3c0.5,6.7-6.9,4.8-6,3.2C136.6,188.6,137.5,181.9,137.5,181.9z"/>
			</g>
		</g>
	</g>
	<path class="st18" d="M129.1,162.3v55.2c15.2,0,27.6-12.4,27.6-27.6C156.7,174.6,144.4,162.3,129.1,162.3z"/>
	<g>
		<g>
			<path class="st19" d="M230.9,180.8h-53c-1.4,0-2.5,1.1-2.5,2.5l0,0c0,1.4,1.1,2.5,2.5,2.5h53c1.4,0,2.5-1.1,2.5-2.5l0,0
				C233.3,181.9,232.2,180.8,230.9,180.8z"/>
			<path class="st19" d="M230.9,192.9h-53c-1.4,0-2.5,1.1-2.5,2.5l0,0c0,1.4,1.1,2.5,2.5,2.5h53c1.4,0,2.5-1.1,2.5-2.5l0,0
				C233.3,194,232.2,192.9,230.9,192.9z"/>
			<path class="st19" d="M230.9,205.1h-53c-1.4,0-2.5,1.1-2.5,2.5l0,0c0,1.4,1.1,2.5,2.5,2.5h53c1.4,0,2.5-1.1,2.5-2.5l0,0
				C233.3,206.2,232.2,205.1,230.9,205.1z"/>
		</g>
		<circle class="st19" cx="230" cy="171.3" r="3.3"/>
		<circle class="st19" cx="219.2" cy="171.3" r="3.3"/>
		<circle class="st19" cx="208.5" cy="171.3" r="3.3"/>
	</g>
	<path class="st8" d="M226.8,215.3v16.9c0,2.7-3.3,4.1-5.2,2.2L202,214.7L226.8,215.3z"/>
	<g>
		<path class="st26" d="M390.4,195.8h-105c-16.6,0-30,13.4-30,30v0c0,16.6,13.4,30,30,30h105c16.6,0,30-13.4,30-30v0
			C420.5,209.2,407,195.8,390.4,195.8z"/>
		<g>
			<g>
				<path class="st27" d="M402.7,217.5h-72.2c-1.2,0-2.2,1-2.2,2.2l0,0c0,1.2,1,2.2,2.2,2.2h72.2c1.2,0,2.2-1,2.2-2.2l0,0
					C405,218.5,404,217.5,402.7,217.5z"/>
				<path class="st27" d="M402.7,228.6h-72.2c-1.2,0-2.2,1-2.2,2.2v0c0,1.2,1,2.2,2.2,2.2h72.2c1.2,0,2.2-1,2.2-2.2v0
					C405,229.6,404,228.6,402.7,228.6z"/>
				<path class="st27" d="M402.7,239.6h-72.2c-1.2,0-2.2,1-2.2,2.2l0,0c0,1.2,1,2.2,2.2,2.2h72.2c1.2,0,2.2-1,2.2-2.2l0,0
					C405,240.6,404,239.6,402.7,239.6z"/>
			</g>
			<path class="st27" d="M398.9,208.9c0-1.7,1.3-3,3-3s3,1.3,3,3c0,1.7-1.3,3-3,3S398.9,210.6,398.9,208.9z"/>
			<path class="st27" d="M389.1,208.9c0-1.7,1.3-3,3-3c1.7,0,3,1.3,3,3c0,1.7-1.3,3-3,3C390.5,211.9,389.1,210.6,389.1,208.9z"/>
			<path class="st27" d="M379.3,208.9c0-1.7,1.3-3,3-3c1.7,0,3,1.3,3,3c0,1.7-1.3,3-3,3C380.7,211.9,379.3,210.6,379.3,208.9z"/>
		</g>
		<path class="st26" d="M278.4,249v15.3c0,2.5,3,3.7,4.7,2l17.8-17.8L278.4,249z"/>
		<g>
			<g>
				
					<ellipse transform="matrix(0.7071 -0.7071 0.7071 0.7071 -76.187 268.3673)" class="st28" cx="285.9" cy="226.1" rx="24.8" ry="24.8"/>
				<g>
					<defs>
						
							<ellipse id="SVGID_5_" transform="matrix(0.7071 -0.7071 0.7071 0.7071 -76.187 268.3673)" cx="285.9" cy="226.1" rx="24.8" ry="24.8"/>
					</defs>
					<clipPath id="SVGID_6_">
						<use xlink:href="#SVGID_5_"  style="overflow:visible;"/>
					</clipPath>
					<g class="st29">
						<path class="st25" d="M278.3,217.5c0,0-1.5,9.1-1.6,12.3c-0.4,8.8,6.2,4.4,6.5,2.1c0.2-1.3-1.7-1.8-1.9-4.6
							C280.9,222.8,278.3,217.5,278.3,217.5z"/>
					</g>
					<g class="st29">
						<path class="st25" d="M293.6,217.5c0,0,1.5,9.1,1.6,12.3c0.4,8.8-6.2,4.4-6.5,2.1c-0.2-1.3,2.3-1.7,2.5-4.6
							C291.6,222.8,293.6,217.5,293.6,217.5z"/>
					</g>
					<g class="st29">
						<path class="st30" d="M299.3,252h-3.8l-2.6-10.6l2.6-7.5c0,0,3.8,2.1,3.7,8.8C299,246.4,299.3,252,299.3,252z"/>
					</g>
					<g class="st29">
						<path class="st30" d="M272.4,252h3.8l2.6-10.6l-2.6-7.5c0,0-3.8,2.1-3.7,8.8C272.7,246.4,272.4,252,272.4,252z"/>
					</g>
					<path class="st31" d="M291.2,233h-5.3h-5.3c-1.2,0-3.2,0.5-4.2,1c0,0,0.8,4.9,0.8,7.3c0,2.1,0,10.8,0,10.8h6.6h2.2h2.2h6.6
						c0,0,0-8.7,0-10.8c0-2.4,0.8-7.3,0.8-7.3C294.4,233.5,292.4,233,291.2,233z"/>
					<g class="st29">
						<path class="st30" d="M289.5,231.7c0-0.7,0-4.7,0-4.7h-3.6h-3.6c0,0,0,4,0,4.7c0,1.1-1.4,1.3-1.9,1.4c0.8,1.4,3,2.9,5.5,2.9
							c2.6,0,4.7-1.6,5.5-2.9C290.9,233,289.5,232.8,289.5,231.7z"/>
					</g>
					<g class="st29">
						<path class="st32" d="M289.6,232.1c0-0.1-0.1-0.2-0.1-0.4c0-0.7,0-4.7,0-4.7h-3.6h-3.6c0,0,0,1.9,0,3.3
							c1.1,1.7,2.6,2.5,4.7,2.5C287.9,232.8,288.8,232.5,289.6,232.1z"/>
					</g>
					<g class="st29">
						<path class="st30" d="M291,216.8c-1.9-1.5-7.9-1.5-9.8,0c-1.5,1.2-2.2,5.3-1.3,8.5c1.1,3.9,2.9,6.4,6.2,6.5
							c3.4-0.1,5.2-2.6,6.2-6.5C293.2,222.1,292.5,218,291,216.8z"/>
					</g>
					<g class="st29">
						<path class="st25" d="M281.8,217.6c0,0,4.3,1.9,6.7,2.5c1.6,0.4,2.5,0.4,3.2,1.2c0.6,0.6,0.2,6.2,0.2,6.2l1.9-3.4
							c0,0,0.2-3.8-0.1-5.6c-1.5-10.1-15.1-8.6-15.6,0c-0.1,1.3,0.1,3.6,0.1,3.6l1.5,5.6c0,0-0.4-6.6,0.6-7.7
							C281.5,218.7,281.8,217.6,281.8,217.6z"/>
					</g>
				</g>
			</g>
			<path class="st18" d="M285.9,201.3v49.6c13.7,0,24.8-11.1,24.8-24.8C310.7,212.5,299.6,201.3,285.9,201.3z"/>
		</g>
	</g>
	<g>
		
			<ellipse transform="matrix(0.7071 -0.7071 0.7071 0.7071 -209.4537 259.3548)" class="st6" cx="208.3" cy="382.5" rx="8.1" ry="8.1"/>
		<path class="st6" d="M118.5,304.4c0,2-1.6,3.6-3.6,3.6s-3.6-1.6-3.6-3.6c0-2,1.6-3.6,3.6-3.6S118.5,302.5,118.5,304.4z"/>
		<path class="st6" d="M344.7,267.1c0,2-1.6,3.6-3.6,3.6s-3.6-1.6-3.6-3.6s1.6-3.6,3.6-3.6S344.7,265.1,344.7,267.1z"/>
		
			<ellipse transform="matrix(0.9239 -0.3827 0.3827 0.9239 -24.8069 79.941)" class="st6" cx="188.5" cy="102.3" rx="7.3" ry="7.3"/>
		<circle class="st6" cx="112.4" cy="241.9" r="7.7"/>
		<circle class="st6" cx="134.1" cy="241.9" r="7.7"/>
		<circle class="st6" cx="155.7" cy="241.9" r="7.7"/>
		<g>
			<path class="st6" d="M211.5,138.1h-30.7c-2.6,0-4.8,2.1-4.8,4.8c0,2.6,2.1,4.8,4.8,4.8h30.7c2.6,0,4.8-2.1,4.8-4.8
				C216.3,140.2,214.2,138.1,211.5,138.1z"/>
			<path class="st6" d="M170.3,142.8c0,2.6-2.1,4.8-4.8,4.8c-2.6,0-4.8-2.1-4.8-4.8c0-2.6,2.1-4.8,4.8-4.8
				C168.2,138.1,170.3,140.2,170.3,142.8z"/>
		</g>
		<g>
			<path class="st6" d="M262.6,184.3h22.6c1.9,0,3.5-1.6,3.5-3.5c0-1.9-1.6-3.5-3.5-3.5h-22.6c-1.9,0-3.5,1.6-3.5,3.5
				C259,182.7,260.6,184.3,262.6,184.3z"/>
			<path class="st6" d="M292.9,180.8c0-1.9,1.6-3.5,3.5-3.5c1.9,0,3.5,1.6,3.5,3.5c0,1.9-1.6,3.5-3.5,3.5
				C294.5,184.3,292.9,182.7,292.9,180.8z"/>
		</g>
		<g>
			<path class="st6" d="M245.4,388.1H268c1.9,0,3.5-1.6,3.5-3.5c0-1.9-1.6-3.5-3.5-3.5h-22.6c-1.9,0-3.5,1.6-3.5,3.5
				C241.9,386.5,243.5,388.1,245.4,388.1z"/>
			<path class="st6" d="M275.8,384.6c0-1.9,1.6-3.5,3.5-3.5c1.9,0,3.5,1.6,3.5,3.5c0,1.9-1.6,3.5-3.5,3.5
				C277.3,388.1,275.8,386.5,275.8,384.6z"/>
		</g>
		<g>
			<path class="st6" d="M350.4,288.8h23.9c3.1,0,5.7-2.5,5.7-5.7c0-3.1-2.5-5.7-5.7-5.7h-23.9c-3.1,0-5.7,2.5-5.7,5.7
				C344.7,286.3,347.2,288.8,350.4,288.8z"/>
			<circle class="st6" cx="392.4" cy="283.1" r="5.7"/>
		</g>
		<path class="st6" d="M327.1,160.2l-2.6,2.6c-1.8,1.8-4.6,1.8-6.3,0l-2.6-2.6c-1.5-1.5-3.9-1.6-5.4-0.2c-1.6,1.5-1.6,3.9-0.1,5.4
			l2.7,2.7c1.8,1.8,1.8,4.6,0,6.3l-2.6,2.6c-1.5,1.5-1.6,3.9-0.2,5.4c1.5,1.6,3.9,1.6,5.4,0.1l2.7-2.7c1.8-1.8,4.6-1.8,6.3,0
			l2.6,2.6c1.5,1.5,3.9,1.6,5.4,0.2c1.6-1.5,1.6-3.9,0.1-5.4l-2.7-2.7c-1.8-1.8-1.8-4.6,0-6.3l2.7-2.7c1.5-1.5,1.5-3.9-0.1-5.4
			C331,158.6,328.6,158.7,327.1,160.2z"/>
		<path class="st6" d="M121.8,278.3h-2.1c-1.4,0-2.6-1.1-2.6-2.6v-2.1c0-1.2-0.9-2.2-2.1-2.2c-1.2,0-2.2,0.9-2.2,2.1v2.2
			c0,1.4-1.1,2.6-2.6,2.6h-2.1c-1.2,0-2.2,0.9-2.2,2.1c0,1.2,0.9,2.2,2.1,2.2h2.2c1.4,0,2.6,1.1,2.6,2.6v2.1c0,1.2,0.9,2.2,2.1,2.2
			c1.2,0,2.2-0.9,2.2-2.1v-2.2c0-1.4,1.1-2.6,2.6-2.6h2.2c1.2,0,2.2-1,2.1-2.2C124,279.2,122.9,278.3,121.8,278.3z"/>
	</g>
</g>
<g id="DESIGNED_BY_FREEPIK">
</g>
</svg>
